<svg width="120" height="132" viewBox="0 0 120 132" fill="none" xmlns="http://www.w3.org/2000/svg">
<path d="M41.599 39.7488C41.0363 37.9149 38.004 36.3782 35.0718 34.8928C34.299 34.5006 33.5529 34.1232 32.9067 33.7639C32.491 33.5331 31.9735 33.6804 31.7431 34.0885C31.5121 34.4971 31.6591 35.0134 32.0704 35.2419C32.7346 35.6109 33.5001 35.9991 34.2941 36.4014C36.5382 37.5392 39.6122 39.0966 39.9631 40.2423C40.6927 42.6237 40.73 42.9665 40.73 43.6068C40.73 43.8396 40.6857 43.9437 40.66 43.9695C40.4897 44.1323 39.6726 44.1034 39.1309 44.0846C38.8655 44.0745 38.5907 44.0655 38.3135 44.0655H4.12563C3.91852 44.0655 3.71228 44.0687 3.51129 44.073C2.87945 44.0846 2.0087 44.1002 1.80013 43.8975C1.75025 43.8486 1.71933 43.7335 1.71087 43.5756C1.7803 43.2603 2.03291 42.1396 2.5364 40.2099C2.92379 38.7267 6.72562 36.5836 13.7978 33.8524C13.9714 33.7955 15.518 33.2598 16.3745 32.1269C16.6583 31.753 16.5813 31.2217 16.2032 30.9411C15.8266 30.6614 15.2902 30.7358 15.0072 31.1109C14.5522 31.7116 13.5883 32.1336 13.2167 32.2594C7.51411 34.4607 1.58894 37.0758 0.882126 39.7853C0.270997 42.1257 0.0282958 43.2736 0.018086 43.3216C0.00554253 43.3777 0 43.4364 0 43.4946C0 44.1745 0.202738 44.7174 0.602378 45.1064C1.32377 45.8084 2.41622 45.7604 3.27092 45.7604H40.0232C40.8777 45.7604 41.3135 45.699 41.847 45.1886C42.2399 44.812 42.4395 44.2798 42.4395 43.6068C42.4395 42.7189 42.3569 42.224 41.599 39.7488Z" fill="#727173"/>
<path d="M8.40079 25.4228H10.1105C10.6044 25.4228 11.006 25.2729 11.3042 24.9765C11.8214 24.4625 11.8199 23.7227 11.8182 23.0077V22.9242C11.9558 23.0138 12.0982 23.0928 12.2464 23.1495C12.7079 24.2913 13.2338 25.1104 13.786 25.9729C13.9424 26.2152 14.1008 26.4628 14.2612 26.722C14.9266 27.8042 15.6025 28.56 16.332 29.0589C16.4263 29.1358 18.6406 30.9235 21.1881 30.955C21.2835 30.968 21.4343 30.9822 21.6347 30.9822C22.4836 30.9822 24.219 30.7265 26.3088 29.0091C26.9718 28.5021 27.5751 27.7869 28.206 26.7598C28.3746 26.486 28.5424 26.2262 28.7078 25.9697C29.2428 25.1387 29.7944 24.2824 30.2693 23.126C30.3903 23.072 30.5085 23.0051 30.6217 22.9285V23.0077C30.6199 23.7227 30.6182 24.4617 31.136 24.9765C31.2351 25.0751 31.3495 25.1515 31.4711 25.2174C31.4142 27.2116 30.9116 31.0806 29.0278 31.7455C28.6106 31.4592 28.1101 31.2885 27.571 31.2885C27.3723 31.2885 27.1728 31.3114 26.9791 31.3579L22.8208 32.3378C21.4451 32.6629 20.593 34.0367 20.92 35.3998C21.1966 36.5501 22.2231 37.3535 23.4168 37.3535C23.6154 37.3535 23.8141 37.3298 24.0075 37.2841L28.1661 36.3034C29.5415 35.9783 30.3938 34.6053 30.0665 33.2422C30.0598 33.2145 30.0473 33.1899 30.04 33.1624C32.6811 31.8149 33.1172 27.375 33.1782 25.4228H34.0396C35.2047 25.4228 36.8599 24.5918 37.4786 23.3346C38.5943 20.8927 38.5952 18.0907 37.4678 15.6244C36.9955 14.6657 35.8946 13.9568 34.8803 13.6846C34.7234 6.11332 28.662 0 21.2199 0C13.779 0 7.71849 6.11159 7.5598 13.6809C6.55078 13.9455 5.4557 14.6411 4.96213 15.6467C3.84431 18.0889 3.84431 20.8909 4.97205 23.3571C5.57968 24.5924 7.23571 25.4228 8.40079 25.4228ZM27.7705 34.6548L23.6119 35.6355C23.1621 35.7414 22.689 35.447 22.5831 35.0068C22.4737 34.5524 22.7581 34.0946 23.2164 33.9861L27.3747 33.0065C27.4397 32.9915 27.5051 32.9834 27.571 32.9834C27.9625 32.9834 28.3128 33.257 28.4041 33.6344C28.5132 34.0888 28.2285 34.5463 27.7705 34.6548ZM29.9297 21.2336C29.8087 21.4546 29.5864 21.592 29.5015 21.6039C29.1903 21.6467 28.9274 21.8561 28.8189 22.149C28.3755 23.3357 27.837 24.1724 27.267 25.0572C27.0949 25.3236 26.9216 25.5934 26.7472 25.8771C26.2271 26.7222 25.7563 27.2917 25.2414 27.6862C23.0311 29.502 21.4711 29.2836 21.4174 29.2761C21.3652 29.2663 21.3106 29.2613 21.2567 29.2613C19.3025 29.2613 17.437 27.7658 17.3638 27.7094C16.7795 27.3073 16.2577 26.7133 15.72 25.8392C15.5541 25.5703 15.3904 25.3146 15.2285 25.063C14.6358 24.1395 14.1244 23.3415 13.6886 22.1433C13.576 21.8321 13.2464 21.612 12.9141 21.5839C12.8321 21.5764 12.6061 21.4422 12.4841 21.2229C12.3438 20.9678 12.0889 20.8282 11.8182 20.801V17.7959H11.8199C12.2828 17.7959 12.6399 17.5394 12.651 17.0787C12.651 17.0512 12.7038 14.456 13.8683 11.7723C15.3706 8.30882 17.8749 6.55207 21.4049 6.55207C29.9292 6.55207 29.9554 16.4777 29.9563 16.9005C29.9572 17.3679 30.6217 17.7427 30.6217 17.7427V20.8091C30.3405 20.8287 30.0736 20.9705 29.9297 21.2336ZM35.9208 16.3461C36.8348 18.3446 36.8348 20.6367 35.9308 22.613C35.6364 23.214 34.6446 23.7279 34.0396 23.7279L32.3562 23.7227C32.3293 23.5457 32.3302 23.2336 32.3311 23.0121V15.9701C32.3302 15.7459 32.3293 15.4289 32.3568 15.2534H34.0396C34.6446 15.2534 35.6364 15.7673 35.9208 16.3461ZM21.2199 1.69485C27.6786 1.69485 32.9448 6.98041 33.1648 13.5588H32.3302C31.9364 13.5588 31.6044 13.6577 31.3343 13.8457C30.6304 10.2698 28.4248 4.80343 21.4994 4.80343C14.5672 4.80343 12.1918 10.4763 11.3815 14.0971C11.3552 14.0664 11.3333 14.034 11.3042 14.0048C11.006 13.7086 10.6044 13.5588 10.1105 13.5588H9.27475C9.4947 6.98041 14.7609 1.69485 21.2199 1.69485ZM6.50965 16.3675C6.8034 15.7673 7.79579 15.2534 8.40079 15.2534L10.0837 15.2586C10.1105 15.4356 10.1096 15.7477 10.1087 15.9695V23.0112C10.1096 23.2354 10.1105 23.5515 10.0828 23.7279H8.40079C7.79579 23.7279 6.80427 23.214 6.51956 22.6352C5.60477 20.6361 5.60477 18.3446 6.50965 16.3675Z" fill="#727173"/>
<path d="M27.8794 91.3994C20.954 91.3994 15.3193 85.8127 15.3193 78.9457C15.3193 73.2989 19.1617 68.3506 24.6633 66.9131L24.8652 66.8602L24.8798 66.6537C25.2648 61.2626 29.8406 57.0396 35.2967 57.0396C36.292 57.0396 37.2762 57.1784 38.2216 57.4523L38.4798 57.5272L38.5758 57.2782C40.8164 51.4816 46.521 47.5869 52.7712 47.5869C60.6278 47.5869 67.2822 53.6751 67.9213 61.4474L67.9385 61.6542L68.1413 61.7045C74.9077 63.3846 79.6334 69.3944 79.6334 76.3193C79.6334 84.014 73.8211 90.4553 66.1136 91.3013L63.6586 91.3982L59.5105 91.3991C59.0091 91.3991 58.6015 90.9948 58.6015 90.4976C58.6015 90.0004 59.0091 89.5964 59.5105 89.5964H63.6233L65.9777 89.505C72.7354 88.7611 77.8149 83.0932 77.8149 76.3195C77.8149 69.932 73.2214 64.4478 66.8936 63.279C66.8528 63.2596 66.8245 63.2478 66.7948 63.2385L66.7775 63.233L66.76 63.2299C66.2332 63.1338 65.7029 63.0853 65.1834 63.0853C64.8263 63.0853 64.4681 63.1084 64.1189 63.1538C64.0784 63.159 64.0384 63.1613 63.9987 63.1613C63.544 63.1613 63.158 62.8241 63.1 62.3769C63.0682 62.1375 63.1321 61.9009 63.2803 61.71C63.4284 61.5194 63.6423 61.3968 63.8826 61.3655C64.3021 61.3111 64.7394 61.2837 65.1813 61.2837C65.3657 61.2837 65.5497 61.2886 65.7335 61.2976L66.0821 61.3149L66.0372 60.9713C65.1734 54.3683 59.4703 49.3891 52.7709 49.3891C46.8571 49.3891 41.5737 53.3231 39.9229 58.9554C39.9001 59.0335 39.8465 59.1113 39.7846 59.2013L39.7347 59.2733L39.7324 59.3624C39.7321 59.3942 39.7333 59.4257 39.7347 59.4569C39.7362 59.4948 39.7376 59.5304 39.7336 59.5501C39.6008 60.13 39.5075 60.7243 39.4564 61.3166C39.4171 61.7803 39.0195 62.1424 38.5519 62.1424C38.5265 62.1424 38.5008 62.1415 38.4746 62.1392C38.2316 62.119 38.0122 62.0062 37.8558 61.8222C37.6992 61.638 37.6245 61.4046 37.6452 61.1648C37.6884 60.6555 37.7683 60.1167 37.8903 59.518L37.9434 59.2568L37.6852 59.183C36.8961 58.9566 36.0925 58.8421 35.2964 58.8421C30.5407 58.8421 26.6715 62.6774 26.6715 67.3921C26.6715 67.3921 26.6793 67.535 26.6799 67.5546C26.6957 68.0023 26.3762 68.3968 25.9363 68.4767C20.8379 69.4028 17.1376 73.8056 17.1376 78.9448C17.1376 84.8178 21.956 89.5955 27.8791 89.5955H60.2205C60.722 89.5955 61.1298 89.9995 61.1298 90.4967C61.1298 90.9939 60.722 91.3982 60.2205 91.3982H27.8794V91.3994Z" fill="#727173"/>
<path d="M9.0548 67.4556C9.3993 71.0231 8.79343 74.6911 7.4574 78.0521C6.80835 79.7424 5.97932 81.3551 5.11499 82.9322C4.24628 84.5073 3.30494 86.035 2.50449 87.6081C1.69938 89.1656 1.01036 90.8153 1.01882 92.4989C1.01911 92.9165 1.06054 93.3342 1.15826 93.7408C1.19618 93.9464 1.26911 94.1443 1.32657 94.3459C1.4065 94.5402 1.46834 94.7424 1.56636 94.931C1.92516 95.6974 2.42077 96.4129 2.99952 97.0657C4.16198 98.373 5.58493 99.4686 7.05543 100.479C8.53352 101.486 10.0831 102.399 11.6478 103.291C9.99526 102.571 8.38299 101.755 6.82294 100.837C5.27922 99.8972 3.767 98.8606 2.49399 97.521C1.85515 96.8575 1.28836 96.1043 0.872967 95.2555C0.760367 95.0481 0.683065 94.8228 0.589426 94.6056C0.517374 94.3794 0.431612 94.157 0.382314 93.9236C0.260671 93.4631 0.201455 92.9859 0.190078 92.511C0.162366 91.5572 0.361019 90.6221 0.644267 89.7423C0.93335 88.861 1.3114 88.024 1.72475 87.2159C2.56458 85.6044 3.50826 84.0801 4.39359 82.5328C5.29176 80.9927 6.11875 79.4213 6.82731 77.7985C8.24851 74.5557 9.0335 71.0388 9.0548 67.4556Z" fill="#727173"/>
<path d="M44.1094 13.2856C46.4955 12.8521 48.9039 12.5273 51.3245 12.3271C53.7448 12.1183 56.1782 12.0379 58.6105 12.0842C63.4738 12.1938 68.3355 12.7957 73.0728 13.9454C82.5425 16.2435 91.4901 20.7959 98.7822 27.2624C102.409 30.5109 105.612 34.233 108.216 38.3365C110.816 42.4371 112.857 46.9047 114.095 51.5945C115.342 56.2787 115.826 61.1577 115.506 65.9802C115.161 70.7998 114.037 75.557 112.168 79.9977C115.589 70.9921 116.079 60.9662 113.446 51.77C112.124 47.1792 110.14 42.7795 107.544 38.7599C104.959 34.7333 101.783 31.0879 98.1976 27.9065C94.6283 24.7048 90.6383 21.965 86.3753 19.7394C82.1131 17.5063 77.5715 15.8163 72.9091 14.5895C68.2404 13.3736 63.4286 12.7031 58.5977 12.507C53.7629 12.2707 48.9106 12.6123 44.1094 13.2856Z" fill="#00827E"/>
<path d="M40.2811 85.5927H52.8146C47.4688 84.2157 44.5829 80.5746 44.3309 76.1278C44.0695 71.5124 47.3127 70.1267 47.3127 70.1267C35.804 72.6638 40.2811 85.5927 40.2811 85.5927Z" fill="#00827E"/>
<path d="M49.8825 78.849C45.3748 77.6699 45.0475 74.1836 45.0475 74.1836C43.9247 85.8193 57.7099 85.5934 57.7099 85.5934L61.5832 73.7749C58.6107 78.3903 54.2261 79.9863 49.8825 78.849Z" fill="#00827E"/>
<path d="M54.2805 74.3678C51.7557 78.2541 48.3115 77.4845 48.3115 77.4845C59.1257 82.1396 63.1682 69.0707 63.1682 69.0707L53.0284 61.7664C56.5368 65.996 56.713 70.6236 54.2805 74.3678Z" fill="#00827E"/>
<path d="M38.916 66.2778C44.0393 64.2289 48.5436 65.4517 51.416 68.877C54.3967 72.431 52.6222 75.458 52.6222 75.458C60.3472 66.6277 48.9878 58.8809 48.9878 58.8809L38.916 66.2778Z" fill="#00827E"/>
<path d="M34.9883 69.0123L38.8613 80.8309C38.5299 75.3645 41.1308 71.5184 45.3188 69.9066C49.6656 68.2337 51.9963 70.8639 51.9963 70.8639C49.7204 67.0384 46.7196 65.8522 43.8722 65.8525C39.225 65.8528 34.9883 69.0123 34.9883 69.0123Z" fill="#00827E"/>
<path d="M65.0362 71.8237V73.0853H64.7323V71.8237H64.1748V71.5374H65.5945V71.8237H65.0362ZM66.8212 73.0856H66.5522L66.1316 72.1505L66.0762 73.0856H65.7874L65.8629 71.5374H66.1575L66.6949 72.7084L67.2074 71.5374H67.4962L67.5875 73.0856H67.2888L67.2372 72.1505L66.8212 73.0856Z" fill="#00827E"/>
<rect x="83.6295" y="85.6295" width="35.6696" height="45.7411" rx="1.04911" stroke="#727173" stroke-width="1.25893"/>
<g clip-path="url(#clip0_158_3456)">
<path d="M92.5443 113.965L88.6796 117.83L86.9229 116.073" stroke="#00827E" stroke-width="1.25893" stroke-linecap="round" stroke-linejoin="round"/>
</g>
<g clip-path="url(#clip1_158_3456)">
<path d="M92.5443 122.358L88.6796 126.223L86.9229 124.466" stroke="#00827E" stroke-width="1.25893" stroke-linecap="round" stroke-linejoin="round"/>
</g>
<path d="M93.0713 90.875H109.857" stroke="#00827E" stroke-width="1.25893" stroke-linecap="round"/>
<path d="M87.1963 97.5894H115.732" stroke="#727173" stroke-width="1.25893" stroke-linecap="round"/>
<path d="M95.5889 114.375H115.732" stroke="#727173" stroke-width="1.25893" stroke-linecap="round"/>
<path d="M95.5889 122.768H115.732" stroke="#727173" stroke-width="1.25893" stroke-linecap="round"/>
<path d="M87.1963 104.303H115.732" stroke="#727173" stroke-width="1.25893" stroke-linecap="round"/>
<path d="M87.1963 100.947H115.732" stroke="#727173" stroke-width="1.25893" stroke-linecap="round"/>
<path d="M95.5889 117.732H108.178" stroke="#727173" stroke-width="1.25893" stroke-linecap="round"/>
<path d="M95.5889 126.125H108.178" stroke="#727173" stroke-width="1.25893" stroke-linecap="round"/>
<path d="M87.1963 107.661H102.303" stroke="#727173" stroke-width="1.25893" stroke-linecap="round"/>
<defs>
<clipPath id="clip0_158_3456">
<rect width="8.4322" height="8.4322" fill="white" transform="translate(85.5176 111.857)"/>
</clipPath>
<clipPath id="clip1_158_3456">
<rect width="8.4322" height="8.4322" fill="white" transform="translate(85.5176 120.25)"/>
</clipPath>
</defs>
</svg>
