<svg xmlns="http://www.w3.org/2000/svg" width="24" height="24" fill="none" viewBox="0 0 24 24">
    <path fill="#00827E" fill-rule="evenodd" d="M12 18.6c2.796 0 5.172-1.752 6.132-4.2H5.868c.96 2.448 3.336 4.2 6.132 4.2zm-4.2-7.8c.996 0 1.8-.804 1.8-1.8s-.804-1.8-1.8-1.8S6 8.004 6 9s.804 1.8 1.8 1.8zm8.4 0c.996 0 1.8-.804 1.8-1.8s-.804-1.8-1.8-1.8-1.8.804-1.8 1.8.804 1.8 1.8 1.8zM11.988 0C5.364 0 0 5.376 0 12s5.364 12 11.988 12C18.624 24 24 18.624 24 12S18.624 0 11.988 0z" clip-rule="evenodd"/>
</svg>
