<svg xmlns="http://www.w3.org/2000/svg" width="24" height="21" fill="none" viewBox="0 0 24 21">
    <path fill="#fff" d="M15.718 3.917a11.07 11.07 0 0 0-3.753-.664C6.06 3.253 1.902 8.041.758 10.508c.769 1.653 2.887 4.345 5.978 5.945l8.982-12.536zM17.11 4.52L8.123 17.064c1.175.432 2.458.7 3.841.7 5.906 0 10.064-4.789 11.208-7.255-.777-1.669-2.93-4.395-6.064-5.987z"/>
    <path fill="#B8D4FF" d="M8.471 14.032l5.724-7.992A5.032 5.032 0 0 0 12 5.536c-2.775 0-5.024 2.223-5.024 4.964 0 1.382.572 2.63 1.495 3.532zM15.42 6.873l-5.747 8.026a5.054 5.054 0 0 0 2.327.565c2.775 0 5.024-2.223 5.024-4.964a4.92 4.92 0 0 0-1.604-3.627z"/>
    <path fill="#717791" d="M8.247 14.341l.453-.63A4.533 4.533 0 0 1 7.362 10.5c0-2.528 2.08-4.582 4.638-4.582.703 0 1.368.16 1.967.44l.452-.63A5.422 5.422 0 0 0 12 5.154c-2.984 0-5.41 2.397-5.41 5.345 0 1.508.637 2.871 1.657 3.841z"/>
    <path fill="#fff" d="M12 13.173c1.494 0 2.705-1.197 2.705-2.673S13.495 7.827 12 7.827c-1.494 0-2.705 1.197-2.705 2.673s1.21 2.673 2.705 2.673z"/>
    <path fill="#717791" d="M10.08 11.783A2.265 2.265 0 0 1 9.68 10.5c0-1.264 1.04-2.29 2.32-2.29.196 0 .393.026.583.08l.467-.654a3.101 3.101 0 0 0-1.055-.187c-1.704 0-3.092 1.371-3.092 3.055 0 .733.263 1.409.704 1.936l.471-.657z"/>
    <path fill="#717791" d="M6.964 16.132c-2.949-1.512-4.997-4.055-5.781-5.624 1.17-2.349 5.17-6.873 10.778-6.873 1.26 0 2.435.229 3.521.61l.468-.652a11.497 11.497 0 0 0-3.989-.722c-5.893 0-10.214 4.586-11.559 7.476a.378.378 0 0 0 0 .317c.881 1.898 3.05 4.529 6.099 6.11l.463-.642zM23.52 10.347c-.822-1.775-2.778-4.192-5.526-5.788l1.585-2.203a.361.361 0 0 0-.09-.512.37.37 0 0 0-.517.084L17.342 4.2l-.46.641L6.484 19.308a.364.364 0 0 0 .383.57.37.37 0 0 0 .22-.146l1.511-2.104c1.051.321 2.172.512 3.362.512 5.894 0 10.219-4.585 11.56-7.476a.379.379 0 0 0 0-.317zm-9.31-.523c.07.218.109.443.109.676 0 1.237-.997 2.241-2.238 2.287l2.13-2.963zM12 13.554c1.704 0 3.092-1.37 3.092-3.054 0-.45-.1-.89-.298-1.302-.015-.034-.042-.061-.065-.088l.974-1.355a4.52 4.52 0 0 1 .939 2.745c0 2.528-2.08 4.582-4.638 4.582-.49 0-.958-.084-1.403-.226l.962-1.336c.14.02.286.035.437.035zm-.039 3.826c-1.016 0-1.982-.152-2.883-.412l1.048-1.459a5.435 5.435 0 0 0 1.874.336c2.984 0 5.41-2.397 5.41-5.345 0-1.29-.47-2.467-1.248-3.39l1.372-1.91c2.64 1.531 4.476 3.845 5.206 5.308-1.17 2.344-5.17 6.872-10.779 6.872z"/>
</svg>
