<?xml version="1.0" encoding="utf-8"?>
<!-- Generator: Adobe Illustrator 25.2.0, SVG Export Plug-In . SVG Version: 6.00 Build 0)  -->
<svg version="1.1" id="Layer_1" xmlns="http://www.w3.org/2000/svg" xmlns:xlink="http://www.w3.org/1999/xlink" x="0px" y="0px"
	 viewBox="0 0 132 125.7" style="enable-background:new 0 0 132 125.7;" xml:space="preserve">
<style type="text/css">
	.st0{fill:url(#SVGID_1_);}
	.st1{fill:url(#SVGID_2_);}
	.st2{fill:url(#SVGID_3_);}
	.st3{fill:url(#SVGID_4_);}
	.st4{fill:url(#SVGID_5_);}
	.st5{fill:url(#SVGID_6_);}
	.st6{fill:url(#SVGID_7_);}
	.st7{fill:url(#SVGID_8_);}
	.st8{fill:url(#SVGID_9_);}
	.st9{fill:url(#SVGID_10_);}
</style>
<g>
	<g>
		
			<linearGradient id="SVGID_1_" gradientUnits="userSpaceOnUse" x1="-1934.3561" y1="2408.5745" x2="-1974.3857" y2="2353.4785" gradientTransform="matrix(1 0 0 -1 2011.033 2475.762)">
			<stop  offset="0.3708" style="stop-color:#3CDBC0"/>
			<stop  offset="0.8898" style="stop-color:#00A499"/>
		</linearGradient>
		<path class="st0" d="M58.8,54.2c0,0-13.2,5.7-12.1,24.6c1,18.2,12.8,33.2,34.5,38.8h-51C30.2,117.6,12,64.6,58.8,54.2z"/>
		
			<linearGradient id="SVGID_2_" gradientUnits="userSpaceOnUse" x1="-1948.5917" y1="2418.9172" x2="-1988.6212" y2="2363.8213" gradientTransform="matrix(1 0 0 -1 2011.033 2475.762)">
			<stop  offset="0" style="stop-color:#00A499"/>
			<stop  offset="0.9" style="stop-color:#3CDBC0"/>
		</linearGradient>
		<path class="st1" d="M58.2,54.5c0.4-0.2,0.6-0.3,0.6-0.3C12,64.6,30.2,117.6,30.2,117.6h7.5C36.8,114.8,22.6,69.6,58.2,54.5z"/>
	</g>
	
		<linearGradient id="SVGID_3_" gradientUnits="userSpaceOnUse" x1="-1696.5487" y1="3047.7166" x2="-1715.53" y2="2981.5212" gradientTransform="matrix(0.309 -0.9511 -0.9511 -0.309 3477.3501 -608.2104)">
		<stop  offset="0.1102" style="stop-color:#00A499"/>
		<stop  offset="0.8398" style="stop-color:#39D8BE"/>
	</linearGradient>
	<path class="st2" d="M49.6,70.8c0,0,1.3,14.3,19.7,19.1c17.7,4.7,35.5-1.9,47.6-20.8l-15.8,48.5C101.1,117.6,45,118.6,49.6,70.8z"
		/>
	
		<linearGradient id="SVGID_4_" gradientUnits="userSpaceOnUse" x1="-1701.1958" y1="3047.4385" x2="-1741.2422" y2="2992.3196" gradientTransform="matrix(0.309 -0.9511 -0.9511 -0.309 3477.3501 -608.2104)">
		<stop  offset="0.1" style="stop-color:#3CDBC0"/>
		<stop  offset="1" style="stop-color:#00A499"/>
	</linearGradient>
	<path class="st3" d="M49.7,71.5c-0.1-0.5-0.1-0.7-0.1-0.7c-4.6,47.7,51.5,46.8,51.5,46.8l2.3-7.2C100.4,110.5,53,110,49.7,71.5z"/>
	
		<linearGradient id="SVGID_5_" gradientUnits="userSpaceOnUse" x1="-920.3119" y1="3056.3579" x2="-881.9327" y2="2999.4585" gradientTransform="matrix(-0.809 -0.5878 -0.5878 0.809 1144.3337 -2924.6213)">
		<stop  offset="0" style="stop-color:#3CDBC0"/>
		<stop  offset="0.8898" style="stop-color:#00A499"/>
	</linearGradient>
	<path class="st4" d="M62.9,84.4c0,0,14,3.2,24.3-12.8c9.9-15.4,9.2-34.3-5.1-51.7l41.2,30C123.3,49.9,106.9,103.5,62.9,84.4z"/>
	
		<linearGradient id="SVGID_6_" gradientUnits="userSpaceOnUse" x1="-890.1817" y1="3067.3438" x2="-930.2128" y2="3012.2456" gradientTransform="matrix(-0.809 -0.5878 -0.5878 0.809 1144.3337 -2924.6213)">
		<stop  offset="0" style="stop-color:#00A499"/>
		<stop  offset="2.589602e-02" style="stop-color:#07AB9E"/>
		<stop  offset="0.1277" style="stop-color:#1EC0AD"/>
		<stop  offset="0.2369" style="stop-color:#2FCFB8"/>
		<stop  offset="0.3574" style="stop-color:#39D8BE"/>
		<stop  offset="0.5113" style="stop-color:#3CDBC0"/>
	</linearGradient>
	<path class="st5" d="M63.6,84.5c-0.5,0-0.7-0.1-0.7-0.1c44,19.1,60.4-34.5,60.4-34.5l-6.1-4.4C116.3,48.3,101.2,93.2,63.6,84.5z"/>
	<g>
		
			<linearGradient id="SVGID_7_" gradientUnits="userSpaceOnUse" x1="-571.1842" y1="2301.0803" x2="-611.2305" y2="2245.9614" gradientTransform="matrix(-0.8036 0.5952 0.5952 0.8036 -1770.2914 -1432.8774)">
			<stop  offset="0.3708" style="stop-color:#3CDBC0"/>
			<stop  offset="0.8898" style="stop-color:#00A499"/>
		</linearGradient>
		<path class="st6" d="M80.4,76.1c0,0,7.2-12.4-4.9-27C63.8,35,45.5,30,24.7,38.4l41-30.3C65.6,8.1,111.8,39.8,80.4,76.1z"/>
		
			<linearGradient id="SVGID_8_" gradientUnits="userSpaceOnUse" x1="-585.3958" y1="2311.4058" x2="-625.4426" y2="2256.2859" gradientTransform="matrix(-0.8036 0.5952 0.5952 0.8036 -1770.2914 -1432.8774)">
			<stop  offset="0" style="stop-color:#00A499"/>
			<stop  offset="0.9" style="stop-color:#3CDBC0"/>
		</linearGradient>
		<path class="st7" d="M80.7,75.4c-0.2,0.4-0.3,0.7-0.3,0.7c31.4-36.2-14.8-68-14.8-68l-6,4.5C62,14.3,100.4,42.1,80.7,75.4z"/>
	</g>
	
		<linearGradient id="SVGID_9_" gradientUnits="userSpaceOnUse" x1="-1215.9083" y1="1815.9121" x2="-1157.9232" y2="1790.0956" gradientTransform="matrix(0.309 0.9511 0.9511 -0.309 -1306.3163 1754.0161)">
		<stop  offset="0.1102" style="stop-color:#00A499"/>
		<stop  offset="0.231" style="stop-color:#06AA9D"/>
		<stop  offset="0.3941" style="stop-color:#17B9A8"/>
		<stop  offset="0.5808" style="stop-color:#33D3BA"/>
		<stop  offset="0.6292" style="stop-color:#3CDBC0"/>
	</linearGradient>
	<path class="st8" d="M77.9,57.2c0,0-9.5-10.8-27.2-3.9c-17,6.6-27.6,22.4-26.3,44.8L8.7,49.6C8.7,49.6,53.5,15.9,77.9,57.2z"/>
	
		<linearGradient id="SVGID_10_" gradientUnits="userSpaceOnUse" x1="-1182.3236" y1="1838.0579" x2="-1222.3304" y2="1782.9933" gradientTransform="matrix(0.309 0.9511 0.9511 -0.309 -1306.3163 1754.0161)">
		<stop  offset="0" style="stop-color:#00A499"/>
		<stop  offset="0.9" style="stop-color:#3CDBC0"/>
	</linearGradient>
	<path class="st9" d="M77.3,56.7c0.3,0.3,0.5,0.5,0.5,0.5C53.5,15.9,8.7,49.6,8.7,49.6l2.3,7.2C13.4,55,52,27.5,77.3,56.7z"/>
</g>
</svg>
