<?xml version="1.0" encoding="utf-8"?>
<!-- Generator: Adobe Illustrator 25.2.0, SVG Export Plug-In . SVG Version: 6.00 Build 0)  -->
<svg version="1.1" id="Layer_1" xmlns="http://www.w3.org/2000/svg" xmlns:xlink="http://www.w3.org/1999/xlink" x="0px" y="0px"
	 viewBox="0 0 360 120" style="enable-background:new 0 0 360 120;" xml:space="preserve">
<style type="text/css">
	.st0{fill:#28272C;}
	.st1{fill:#00A499;}
	.st2{fill:url(#SVGID_1_);}
	.st3{fill:url(#SVGID_2_);}
	.st4{fill:url(#SVGID_3_);}
	.st5{fill:url(#SVGID_4_);}
	.st6{fill:url(#SVGID_5_);}
	.st7{fill:url(#SVGID_6_);}
	.st8{fill:url(#SVGID_7_);}
	.st9{fill:url(#SVGID_8_);}
	.st10{fill:url(#SVGID_9_);}
	.st11{fill:url(#SVGID_10_);}
</style>
<g>
	<g>
		<path class="st0" d="M160.6,72.9"/>
		<path class="st0" d="M54.9,46.6L54.9,46.6c-3.4-0.4-7.3-0.6-11.5-0.6c-4.9,0-9.3,1.1-12.9,3.2c-3.7,2.1-6.6,5.2-8.6,9
			c-2,3.8-3,8.3-3,13.3c0,5.1,1,9.6,3,13.5c2,3.9,4.8,7,8.5,9.1c3.7,2.2,7.9,3.3,12.6,3.3c3.2,0,6.3-0.5,9.1-1.4
			c2.3-0.7,4.6-1.8,7-3.3v4h9v-48l-0.9-0.2C62.4,47.6,58.3,46.9,54.9,46.6z M59.1,55.3v28.9c-2.8,1.8-5.4,3.1-7.7,3.8
			c-2.4,0.8-5,1.2-7.7,1.2c-4.8,0-8.6-1.6-11.5-4.8c-2.9-3.2-4.4-7.5-4.4-12.8c0-5.4,1.4-9.7,4.3-12.8c2.8-3.1,6.9-4.7,12.1-4.7
			C49,54.2,53.9,54.5,59.1,55.3z"/>
		<path class="st0" d="M84.1,48.4l-0.9,0.2v48.1h9V55.8c5.3-0.6,11.3-0.9,17.7-0.9h1.1V46H110C101.7,46,93,46.8,84.1,48.4z"/>
		<rect x="122.1" y="47.1" class="st0" width="9" height="49.6"/>
		<path class="st0" d="M126.6,25.5c-1.7,0-3.1,0.6-4.3,1.7c-1.2,1.1-1.8,2.6-1.8,4.4c0,1.7,0.6,3.2,1.8,4.3c1.2,1.1,2.6,1.7,4.3,1.7
			c1.7,0,3.1-0.6,4.3-1.7c1.2-1.1,1.8-2.6,1.8-4.3c0-1.8-0.6-3.3-1.8-4.4C129.8,26,128.3,25.5,126.6,25.5z"/>
		<path class="st0" d="M175.4,69.9c-2.5-1-6.1-1.9-10.5-2.9c-3.1-0.7-5.5-1.4-7.1-1.9c-1.5-0.5-2.6-1.2-3.3-1.9
			c-0.7-0.7-1-1.6-1-2.9c0-2.2,0.8-3.8,2.4-4.9c2.8-2,8.2-2.3,15.2-1c2.8,0.5,5.7,1.3,8.5,2.2l1.1,0.3l2.5-7.5l-1-0.4
			c-2.6-1-5.6-1.8-8.9-2.4c-3.2-0.6-6.4-0.9-9.3-0.9c-5.9,0-10.7,1.3-14.1,3.8c-3.5,2.6-5.3,6.4-5.3,11.1c0,4,1.4,7.2,4.1,9.2
			c2.6,2,6.5,3.6,12,4.7c4.1,0.9,7.2,1.6,9.1,2.1c1.7,0.5,3.2,1.2,4.4,2.2c1,0.9,1.5,2,1.5,3.6c0,2.2-0.9,3.8-2.8,5
			c-3.7,2.3-9.7,2.5-17.2,0.8h0c-3.3-0.8-6.7-1.9-9.8-3.4l-1.2-0.5l-2.2,7.9l0.9,0.4c3.3,1.4,6.9,2.6,10.6,3.4
			c3.7,0.9,7.2,1.3,10.4,1.3c5.9,0,10.8-1.3,14.4-3.9c3.7-2.7,5.6-6.6,5.6-11.6c0-3.1-0.8-5.7-2.5-7.6
			C180.2,72.4,178.1,70.9,175.4,69.9z"/>
		<path class="st0" d="M237.4,56.6c-2-3.5-4.7-6.3-8.2-8.1h0c-3.5-1.9-7.5-2.8-12-2.8c-4.8,0-9.2,1.1-13,3.2
			c-3.8,2.1-6.8,5.2-8.9,9.1c-2.1,3.9-3.2,8.4-3.2,13.5c0,5,1.1,9.5,3.1,13.4c2.1,3.9,5.1,7,9.1,9.3c3.9,2.2,8.6,3.3,13.9,3.3
			c3.3,0,6.3-0.3,9-0.8c2.7-0.5,5.9-1.4,9.6-2.4l1-0.3l-1.5-7.8l-1.1,0.3c-3.5,0.9-6.5,1.5-9,1.9c-2.5,0.4-5,0.6-7.7,0.6
			c-4.7,0-8.6-1.4-11.6-4c-2.7-2.4-4.3-5.7-5-9.6h38.1l0.1-1c0.2-1.5,0.3-3.4,0.3-5.5C240.4,64.2,239.4,60.1,237.4,56.6z
			 M231.9,67.6h-30.3c0.5-4.1,2.1-7.4,4.7-9.9c2.8-2.7,6.5-4.1,11.1-4.1c4.4,0,7.8,1.3,10.5,4C230.3,60,231.6,63.4,231.9,67.6z"/>
	</g>
	<g>
		<path class="st1" d="M332,59.7 M341,59.7 M332.6,59.7"/>
	</g>
	<g>
		
			<linearGradient id="SVGID_1_" gradientUnits="userSpaceOnUse" x1="-1713.4088" y1="-2285.334" x2="-1740.375" y2="-2248.2183" gradientTransform="matrix(1 0 0 1 2011.033 2347.762)">
			<stop  offset="0.3708" style="stop-color:#5EC4B4"/>
			<stop  offset="0.8898" style="stop-color:#00A499"/>
		</linearGradient>
		<path class="st2" d="M285.6,53.7c0,0-8.9,3.8-8.2,16.6c0.7,12.3,8.6,22.3,23.2,26.1h-34.3C266.3,96.4,254.1,60.7,285.6,53.7z"/>
		
			<linearGradient id="SVGID_2_" gradientUnits="userSpaceOnUse" x1="-1722.9824" y1="-2292.2896" x2="-1749.9485" y2="-2255.1741" gradientTransform="matrix(1 0 0 1 2011.033 2347.762)">
			<stop  offset="0" style="stop-color:#00A499"/>
			<stop  offset="0.9" style="stop-color:#5EC4B4"/>
		</linearGradient>
		<path class="st3" d="M285.2,53.9c0.3-0.2,0.4-0.2,0.4-0.2c-31.5,7-19.3,42.7-19.3,42.7h5.1C270.8,94.5,261.2,64,285.2,53.9z"/>
	</g>
	
		<linearGradient id="SVGID_3_" gradientUnits="userSpaceOnUse" x1="-1065.9482" y1="-2812.2268" x2="-1078.7297" y2="-2767.6526" gradientTransform="matrix(0.309 -0.9511 0.9511 0.309 3286.6184 -84.69)">
		<stop  offset="0.1102" style="stop-color:#00A499"/>
		<stop  offset="0.8398" style="stop-color:#55C1B0"/>
	</linearGradient>
	<path class="st4" d="M279.4,64.9c0,0,0.9,9.6,13.2,12.9c11.9,3.1,23.9-1.3,32-14l-10.6,32.6C314.1,96.4,276.3,97,279.4,64.9z"/>
	
		<linearGradient id="SVGID_4_" gradientUnits="userSpaceOnUse" x1="-1069.0734" y1="-2812.0381" x2="-1096.0394" y2="-2774.9224" gradientTransform="matrix(0.309 -0.9511 0.9511 0.309 3286.6184 -84.69)">
		<stop  offset="0.1" style="stop-color:#5EC4B4"/>
		<stop  offset="1" style="stop-color:#00A499"/>
	</linearGradient>
	<path class="st5" d="M279.5,65.4c-0.1-0.3-0.1-0.5-0.1-0.5c-3.1,32.1,34.7,31.5,34.7,31.5l1.6-4.8
		C313.6,91.6,281.7,91.3,279.5,65.4z"/>
	
		<linearGradient id="SVGID_5_" gradientUnits="userSpaceOnUse" x1="-255.8999" y1="-2404.2229" x2="-230.0671" y2="-2365.9243" gradientTransform="matrix(-0.809 -0.5878 0.5878 -0.809 1514.2881 -2018.4167)">
		<stop  offset="0" style="stop-color:#5EC4B4"/>
		<stop  offset="0.8898" style="stop-color:#00A499"/>
	</linearGradient>
	<path class="st6" d="M288.3,74c0,0,9.4,2.1,16.3-8.6c6.7-10.3,6.2-23.1-3.4-34.8L329,50.8C329,50.8,317.9,86.9,288.3,74z"/>
	
		<linearGradient id="SVGID_6_" gradientUnits="userSpaceOnUse" x1="-235.597" y1="-2411.6199" x2="-262.5632" y2="-2374.5042" gradientTransform="matrix(-0.809 -0.5878 0.5878 -0.809 1514.2881 -2018.4167)">
		<stop  offset="0" style="stop-color:#00A499"/>
		<stop  offset="9.886201e-02" style="stop-color:#39B0A3"/>
		<stop  offset="0.216" style="stop-color:#50BAAC"/>
		<stop  offset="0.3456" style="stop-color:#5BC1B2"/>
		<stop  offset="0.5113" style="stop-color:#5EC4B4"/>
	</linearGradient>
	<path class="st7" d="M288.8,74.1c-0.3,0-0.5-0.1-0.5-0.1C317.9,86.9,329,50.8,329,50.8l-4.1-3C324.3,49.7,314.1,80,288.8,74.1z"/>
	<g>
		
			<linearGradient id="SVGID_7_" gradientUnits="userSpaceOnUse" x1="-317.2604" y1="-1498.4763" x2="-344.2265" y2="-1461.3606" gradientTransform="matrix(-0.8036 0.5952 -0.5952 -0.8036 -861.6185 -946.7399)">
			<stop  offset="0.3708" style="stop-color:#5EC4B4"/>
			<stop  offset="0.8898" style="stop-color:#00A499"/>
		</linearGradient>
		<path class="st8" d="M300.1,68.4c0,0,4.9-8.4-3.3-18.2c-7.9-9.5-20.2-12.8-34.2-7.2l27.6-20.4C290.2,22.6,321.3,44,300.1,68.4z"/>
		
			<linearGradient id="SVGID_8_" gradientUnits="userSpaceOnUse" x1="-326.834" y1="-1505.4319" x2="-353.8001" y2="-1468.3162" gradientTransform="matrix(-0.8036 0.5952 -0.5952 -0.8036 -861.6185 -946.7399)">
			<stop  offset="0" style="stop-color:#00A499"/>
			<stop  offset="0.9" style="stop-color:#5EC4B4"/>
		</linearGradient>
		<path class="st9" d="M300.3,68c-0.1,0.3-0.2,0.4-0.2,0.4c21.2-24.4-10-45.8-10-45.8l-4.1,3C287.7,26.8,313.6,45.6,300.3,68z"/>
	</g>
	
		<linearGradient id="SVGID_9_" gradientUnits="userSpaceOnUse" x1="-1208.3942" y1="-1343.2198" x2="-1169.3619" y2="-1325.8416" gradientTransform="matrix(0.309 0.9511 -0.9511 0.309 -627.7423 1606.0698)">
		<stop  offset="0.1102" style="stop-color:#00A499"/>
		<stop  offset="0.2458" style="stop-color:#18A89C"/>
		<stop  offset="0.4289" style="stop-color:#3DB1A5"/>
		<stop  offset="0.6292" style="stop-color:#5EC4B4"/>
	</linearGradient>
	<path class="st10" d="M298.4,55.7c0,0-6.4-7.3-18.3-2.6c-11.5,4.5-18.6,15.1-17.7,30.2l-10.6-32.6C251.8,50.6,282,27.9,298.4,55.7z
		"/>
	
		<linearGradient id="SVGID_10_" gradientUnits="userSpaceOnUse" x1="-1185.8142" y1="-1358.1182" x2="-1212.7804" y2="-1321.0026" gradientTransform="matrix(0.309 0.9511 -0.9511 0.309 -627.7423 1606.0698)">
		<stop  offset="0" style="stop-color:#00A499"/>
		<stop  offset="0.9" style="stop-color:#5EC4B4"/>
	</linearGradient>
	<path class="st11" d="M298.1,55.4c0.2,0.2,0.4,0.3,0.4,0.3c-16.4-27.8-46.6-5.1-46.6-5.1l1.6,4.8C255,54.2,281,35.7,298.1,55.4z"/>
	<g>
		<path class="st1" d="M334.1,58.4v3.5h-0.8v-3.5h-1.5v-0.8h3.9v0.8H334.1z M339,61.9h-0.7l-1.2-2.6l-0.2,2.6h-0.8l0.2-4.3h0.8
			l1.5,3.2l1.4-3.2h0.8l0.2,4.3h-0.8l-0.1-2.6L339,61.9z"/>
	</g>
</g>
</svg>
