<svg xmlns="http://www.w3.org/2000/svg" width="32" height="32" fill="none" viewBox="0 0 32 32">
    <g opacity=".7">
        <path fill="#fff" d="M16 32c8.837 0 16-7.163 16-16S24.837 0 16 0 0 7.163 0 16s7.163 16 16 16z"/>
        <path fill="#BE0019" d="M2.696 24.889h26.608a15.922 15.922 0 0 0 1.782-3.556H.914a15.941 15.941 0 0 0 1.782 3.556zM16 32c3.81 0 7.306-1.333 10.053-3.556H5.948A15.927 15.927 0 0 0 16 32zM26.053 3.555A15.92 15.92 0 0 0 17.778.101v3.454h8.275zM17.778 10.667h13.308a15.947 15.947 0 0 0-1.782-3.556H17.777v3.556zM17.778 17.778h14.121C31.964 17.194 32 16.6 32 16s-.036-1.194-.1-1.778H17.777v3.556z"/>
        <path fill="#1E3796" d="M0 16c0 .601.036 1.194.1 1.778h17.678V.1C17.194.036 16.6 0 16 0 7.163 0 0 7.163 0 16zm4.379.593l-.867-.604-.867.604.306-1.011-.84-.638 1.054-.021.347-.997.347.997 1.055.02-.841.639.306 1.01zm-.306-5.951l.306 1.01-.866-.603-.867.603.305-1.01-.84-.638 1.055-.022.347-.996.347.996 1.054.022-.841.638zm3.225 3.48l-.866-.603-.867.603.306-1.01-.841-.639 1.055-.02.347-.997.346.996 1.056.021-.842.638.306 1.011zm-.306-5.95l.306 1.01-.866-.604-.867.604.306-1.01-.841-.639 1.055-.021.347-.997.346.997 1.056.021-.841.638zm3.226 8.42l-.867-.603-.866.604.306-1.011-.841-.638 1.055-.021.346-.997.348.997 1.055.02-.841.639.305 1.01zm-.306-5.95l.306 1.01-.867-.603-.867.603.306-1.01-.84-.638 1.054-.022.347-.996.347.996 1.055.022-.84.638zm0-4.941l.306 1.01-.867-.603-.867.603.306-1.01-.84-.638 1.054-.022.347-.996.347.996 1.055.021-.84.639zm3.225 8.421l-.866-.603-.866.603.306-1.01-.842-.639 1.055-.02.347-.997.346.996 1.056.021-.842.638.306 1.011zm-.306-5.95l.306 1.01-.866-.604-.866.604.306-1.01-.842-.639 1.055-.021.347-.997.346.997 1.056.021-.842.638zm0-4.942l.306 1.01-.866-.603-.866.604.306-1.01-.842-.639 1.055-.022.347-.996.346.996 1.056.022-.842.638zm3.226 13.273l-.866-.603-.867.603.306-1.01-.84-.638 1.054-.021.347-.997.346.997 1.056.021-.841.638.305 1.01zm-.305-5.95l.305 1.01-.866-.603-.867.603.306-1.01-.84-.638 1.054-.022.347-.996.346.996 1.056.022-.841.638zm0-4.941l.305 1.01-.866-.603-.867.603.306-1.01-.84-.638 1.054-.022.347-.997.346.997 1.056.022-.841.638z"/>
    </g>
</svg>
