<?xml version="1.0" encoding="utf-8"?>
<!-- Generator: Adobe Illustrator 24.1.3, SVG Export Plug-In . SVG Version: 6.00 Build 0)  -->
<svg version="1.1" id="Layer_1" xmlns="http://www.w3.org/2000/svg" xmlns:xlink="http://www.w3.org/1999/xlink" x="0px" y="0px"
	 viewBox="0 0 256 256" style="enable-background:new 0 0 256 256;" xml:space="preserve">
<style type="text/css">
	.st0{fill:#FFFFFF;}
	.st1{fill:#7D7D80;}
	.st2{fill:#00827E;}
</style>
<g>
	<path class="st0" d="M117.8,71.9h27.8v39.9c0,0,8.9,18.1,18.5,0c0-22.3,0-39.9,0-39.9h30.5c0,0,14.5,4.4,14.5,16.6s0,69.6,0,69.6
		h-83.7V90.8C125.5,90.8,122.4,78.2,117.8,71.9z"/>
	<polygon class="st0" points="52.6,150.2 119.7,150.2 119.7,158.1 51.6,158.1 47.5,154 	"/>
	<path class="st0" d="M80.9,89.2h38.8c0,0-3.2-14.5-14.7-15.7s-14.3-0.8-20.7,5.8C77.9,85.8,80.9,89.2,80.9,89.2z"/>
	<g>
		<path class="st1" d="M211,159.9h-87.5v-43c0-1.9,0-3.8,0-5.7c-0.1-4.2-0.1-8.5,0.1-12.8c0.5-10.1-0.8-18.2-8.4-25.1l-3.8-3.4H147
			v10.6c0,2.8,0,5.7,0,8.6c0,6.6,0,13.4,0,20.1c0,5,2.9,8.3,7.4,8.3c2.3,0.1,4.2-0.7,5.6-2.1c1.5-1.5,2.3-3.6,2.3-6.2
			c0.1-8.7,0-17.1,0-26.1c0-3.7,0-7.3,0-11v-1.9h1.9c3.1,0,6.2-0.1,9.2-0.1c6.9-0.2,14.1-0.3,21.1,0.4c8.7,0.9,16.2,9.4,16.4,18.5
			c0.2,16.5,0.2,33.3,0.1,49.5c0,6.5,0,13.1,0,19.7V159.9z M127.4,156h79.7c0-5.9,0-11.8,0-17.7c0-16.2,0.1-33-0.1-49.5
			c-0.1-7.2-6-13.9-12.9-14.7c-6.7-0.7-13.4-0.6-20.6-0.4c-2.4,0.1-4.9,0.1-7.4,0.1c0,3,0,6.1,0,9.1c0,9,0,17.5,0,26.1
			c0,3.6-1.3,6.8-3.5,9c-2.1,2.1-5.1,3.2-8.3,3.2c-6.5-0.1-11.1-5.1-11.2-12.2c-0.1-6.7,0-13.5,0-20.1c0-2.8,0-5.7,0-8.5v-6.7H121
			c6.2,7.6,6.8,16.3,6.4,24.7c-0.2,4.2-0.1,8.4-0.1,12.6c0,1.9,0,3.8,0,5.8L127.4,156z"/>
		<path class="st1" d="M154.6,219.8c-5.7,0-10.4-4.6-10.4-10.4v-47.2h20.7v47.2C165,215.1,160.3,219.8,154.6,219.8z M148.1,166.1
			v43.4c0,3.6,2.9,6.5,6.5,6.5s6.5-2.9,6.5-6.5v-43.4H148.1z"/>
		<path class="st1" d="M154.6,115.6c-1.5,0-2.9-0.6-3.9-1.6c-2.2-2.3-2-6.3-2-7V44.6c0-0.6,0-4.6,2.1-6.8c1-1,2.2-1.5,3.6-1.6
			c1.5,0,2.9,0.5,3.9,1.6c2.3,2.4,2.2,6.7,2.2,7.1v61.8c0.1,0.8,0.3,4.7-1.8,7.1c-1,1.1-2.3,1.8-3.9,1.8
			C154.8,115.6,154.7,115.6,154.6,115.6z M154.6,40L154.6,40c-0.4,0-0.7,0.1-0.9,0.4c-0.9,0.9-1.1,3.1-1.1,4.1v0.1v62.6v0.1
			c-0.1,1,0,3.2,0.9,4.1c0.2,0.2,0.5,0.4,1.2,0.4c0.5,0,0.8-0.2,1.1-0.5c0.9-1,1-3.3,0.9-4.3v-0.2v-62c0-1.1-0.2-3.4-1.1-4.3
			C155.4,40.2,155.2,40,154.6,40z"/>
		<path class="st1" d="M121.7,160.3l-70.1-0.2l-6.7-5.8l6.7-5.8l70.1-0.2V160.3z M53.1,156.3h0.7l64,0.1v-4.2L53,152.4l-2.2,1.9
			L53.1,156.3z"/>
		<path class="st1" d="M121.7,90.8H79l0.2-2.1c0.9-11,9.5-19.1,20.6-19.1c0,0,0.1,0,0.2,0c11.8,0,20.4,7.6,21.5,19.1L121.7,90.8z
			 M83.3,87h34c-1.7-8.2-8.3-13.4-17.3-13.4h-0.1C91.5,73.6,84.9,79.1,83.3,87z"/>
		<path class="st2" d="M181.9,61.6h-19.3V42.1H182l-7.3,9.8L181.9,61.6z M166.5,57.7h7.4l-3.9-5.8l4-5.9h-7.5V57.7z"/>
	</g>
	<polygon class="st0" points="70.2,136.2 70.2,109.8 77.2,102.2 84.3,102.8 89,95.9 116.6,96.7 117.3,142.5 88.6,142.5 84.3,137.5 	
		"/>
	<g>
		<path class="st2" d="M90.2,96.5c0,0.4-0.1,0.8-0.4,1.1l-4.7,5.9c-0.6,0.7-1.7,0.9-2.4,0.3c-0.7-0.6-0.9-1.7-0.3-2.4l4.7-5.9
			c0.6-0.7,1.7-0.9,2.4-0.3C90,95.5,90.2,96,90.2,96.5z M90.2,142.3c0,0.5-0.2,1-0.6,1.3c-0.7,0.6-1.8,0.5-2.4-0.2l-4.7-5.7
			c-0.6-0.7-0.5-1.8,0.2-2.4c0.7-0.6,1.8-0.5,2.4,0.2l4.7,5.7C90.1,141.6,90.2,141.9,90.2,142.3z"/>
		<path class="st2" d="M95,102.4c0,0.9-0.8,1.7-1.7,1.7h-14v5.2c0,0.9-0.8,1.7-1.7,1.7h-5.2v23.9h20.9c0.9,0,1.7,0.8,1.7,1.7
			s-0.8,1.7-1.7,1.7H70.6c-0.9,0-1.7-0.8-1.7-1.7v-27.4l0,0c0-0.5,0.2-0.9,0.5-1.2l6.9-6.9l0,0l0,0l0,0l0,0l0,0l0,0
			c0.3-0.3,0.7-0.5,1.2-0.5l0,0h15.8C94.3,100.7,95,101.4,95,102.4z M75.8,107.6v-1.1l-1.1,1.1H75.8z"/>
		<path class="st2" d="M118.7,142.2c0,0.5-0.2,1-0.6,1.3s-0.9,0.5-1.4,0.4l-28.2,0.2c-0.1,0-0.2,0-0.3,0c-0.1,0-0.2,0-0.3-0.1l0,0
			c-0.1,0-0.2-0.1-0.3-0.1l0,0c-0.1-0.1-0.2-0.1-0.3-0.2c-0.2-0.2-0.3-0.3-0.4-0.5s-0.2-0.4-0.2-0.7c0-0.1,0-0.2,0-0.3
			s0-0.2,0.1-0.3l0,0c0-0.1,0.1-0.1,0.1-0.2c0.1-0.1,0.1-0.2,0.2-0.3l18.1-21.7l-3.9-4.7c0,0,0,0-0.1-0.1l-14-17.3
			c-0.1-0.1-0.1-0.1-0.2-0.2l0,0c-0.1-0.1-0.1-0.2-0.1-0.3c0-0.1-0.1-0.2-0.1-0.3c0-0.1,0-0.2,0-0.3c0-0.2,0.1-0.5,0.2-0.7
			s0.2-0.4,0.4-0.6c0.1-0.1,0.2-0.1,0.3-0.2c0.1-0.1,0.2-0.1,0.3-0.2l0,0c0.1,0,0.2-0.1,0.3-0.1l0,0c0.1,0,0.2,0,0.3,0l28.5,0.2
			c0.3,0,0.6,0.1,0.9,0.2c0.1,0.1,0.2,0.1,0.3,0.2c0.2,0.2,0.3,0.3,0.4,0.6c0.1,0.2,0.2,0.4,0.2,0.7c0,0,0,0,0,0.1v45.5
			C118.7,142.2,118.7,142.2,118.7,142.2z M115.3,137.5v-36L105,113.7l3.9,4.7c0.5,0.6,0.5,1.6,0,2.2l-3.9,4.7L115.3,137.5z
			 M102.8,111l10.6-12.6l-21.1-0.2L102.8,111z M92.2,140.6l21.1-0.1L102.8,128L92.2,140.6z"/>
		<path class="st2" d="M86.2,116.8c-0.6,0-1,0.1-1.5,0.4c-0.4,0.2-0.8,0.6-1.1,1c-0.3,0.4-0.5,0.9-0.7,1.4s-0.2,1.1-0.2,1.7
			s0.1,1.1,0.4,1.4s0.7,0.5,1.3,0.5c0.5,0,0.9-0.1,1.3-0.4s0.7-0.6,1-1s0.5-0.9,0.7-1.4s0.2-1,0.2-1.4c0-0.6-0.1-1-0.4-1.5
			C87.1,117.1,86.7,116.8,86.2,116.8 M88.8,122c-0.1,0.3-0.1,0.5-0.1,0.6c0,0.4,0.2,0.6,0.7,0.6c0.3,0,0.7-0.1,1-0.4
			c0.3-0.2,0.7-0.6,0.9-1c0.3-0.4,0.5-0.9,0.7-1.5s0.3-1.2,0.3-1.8c0-0.9-0.2-1.8-0.5-2.5s-0.8-1.3-1.4-1.8s-1.2-0.9-2-1.1
			c-0.8-0.3-1.6-0.4-2.4-0.4c-1,0-2,0.2-2.8,0.6c-0.9,0.4-1.6,0.9-2.2,1.6s-1.1,1.4-1.5,2.3S79,119,79,120.1c0,1,0.2,2,0.5,2.9
			c0.4,0.9,0.9,1.7,1.5,2.3c0.6,0.6,1.4,1.1,2.3,1.5s1.8,0.5,2.8,0.5c1.1,0,2.2-0.2,3.2-0.6s1.8-1,2.4-1.8h1.9
			c-0.3,0.6-0.8,1.2-1.3,1.6s-1.1,0.9-1.8,1.2c-0.7,0.3-1.4,0.6-2.1,0.8s-1.5,0.3-2.3,0.3c-1.3,0-2.4-0.2-3.5-0.7
			c-1.1-0.5-2-1.1-2.8-1.9s-1.4-1.7-1.9-2.8c-0.5-1.1-0.7-2.3-0.7-3.5s0.2-2.4,0.7-3.4c0.5-1.1,1.1-2,1.9-2.8s1.7-1.4,2.8-1.9
			c1.1-0.5,2.2-0.7,3.4-0.7c1.1,0,2.2,0.2,3.1,0.5c1,0.4,1.8,0.9,2.6,1.5c0.7,0.6,1.3,1.4,1.8,2.3c0.4,0.9,0.6,1.8,0.6,2.9
			c0,1-0.2,1.9-0.6,2.8c-0.4,0.8-0.8,1.5-1.4,2.1s-1.2,1-1.8,1.4c-0.7,0.3-1.3,0.5-1.8,0.5c-0.4,0-0.8-0.1-1-0.4
			c-0.3-0.3-0.4-0.6-0.5-1.1h-0.1c-0.4,0.4-0.8,0.7-1.3,1s-1.1,0.5-1.6,0.5s-1-0.1-1.4-0.3c-0.4-0.2-0.7-0.5-1-0.8s-0.5-0.7-0.6-1.2
			c-0.2-0.5-0.2-0.9-0.2-1.5c0-0.8,0.1-1.5,0.4-2.3s0.6-1.4,1.1-2s1-1.1,1.7-1.4c0.7-0.4,1.4-0.5,2.2-0.5c0.6,0,1.1,0.1,1.5,0.4
			c0.5,0.3,0.8,0.7,1,1.4l0,0l0.4-1.4h1.7L88.8,122z"/>
	</g>
</g>
</svg>
