<?xml version="1.0" encoding="utf-8"?>
<!-- Generator: Adobe Illustrator 24.1.3, SVG Export Plug-In . SVG Version: 6.00 Build 0)  -->
<svg version="1.1" id="Layer_1" xmlns="http://www.w3.org/2000/svg" xmlns:xlink="http://www.w3.org/1999/xlink" x="0px" y="0px"
	 viewBox="0 0 256 256" style="enable-background:new 0 0 256 256;" xml:space="preserve">
<style type="text/css">
	.st0{fill:#FFFFFF;}
	.st1{fill:#7E7E81;}
	.st2{fill:none;stroke:#7E7E81;stroke-width:0.373;stroke-miterlimit:10;}
	.st3{fill:#00827E;}
	.st4{fill:none;stroke:#00827E;stroke-width:0.373;stroke-miterlimit:10;}
</style>
<g>
	<path class="st0" d="M59.6,57.5v137.9c0,0-0.4,9.9,8.7,9.9s70.1,0,70.1,0s6.6-2.4,6.6-7.6c0-5.1,0-43.6,0-43.6h43.1
		c0,0,9.3-0.2,9.3-8.7s0-56.2,0-56.2s0.2-7.3-11.6-7.3s-41.1,0-41.1,0V58.8c0,0-1.6-8.2-12-8.2s-67.1,0-67.1,0S59.6,52.6,59.6,57.5z
		"/>
	<path class="st1" d="M61.4,183.6v13.1c0,3.3,2.7,6,6,6h69c3.3,0,6-2.7,6-6v-13.1H61.4z M136.3,206.8h-69c-5.6,0-10.2-4.6-10.2-10.2
		v-17.4h89.4v17.4C146.5,202.3,142,206.8,136.3,206.8"/>
	<path class="st2" d="M61.4,183.6v13.1c0,3.3,2.7,6,6,6h69c3.3,0,6-2.7,6-6v-13.1H61.4z M136.3,206.8h-69c-5.6,0-10.2-4.6-10.2-10.2
		v-17.4h89.4v17.4C146.5,202.3,142,206.8,136.3,206.8z"/>
	<path class="st1" d="M61.4,69.8h80.9V59.4c0-3.3-2.7-6-6-6h-69c-3.3,0-6,2.7-6,6C61.4,59.4,61.4,69.8,61.4,69.8z M146.5,74H57.2
		V59.4c0-5.6,4.6-10.2,10.2-10.2h69c5.6,0,10.2,4.6,10.2,10.2L146.5,74L146.5,74z"/>
	<path class="st2" d="M61.4,69.8h80.9V59.4c0-3.3-2.7-6-6-6h-69c-3.3,0-6,2.7-6,6C61.4,59.4,61.4,69.8,61.4,69.8z M146.5,74H57.2
		V59.4c0-5.6,4.6-10.2,10.2-10.2h69c5.6,0,10.2,4.6,10.2,10.2L146.5,74L146.5,74z"/>
	<rect x="93.3" y="191.1" class="st1" width="17.2" height="4.2"/>
	<rect x="93.3" y="191.1" class="st2" width="17.2" height="4.2"/>
	<rect x="88.2" y="59.9" class="st1" width="5.5" height="4.2"/>
	<rect x="88.2" y="59.9" class="st2" width="5.5" height="4.2"/>
	<rect x="100.9" y="59.9" class="st1" width="15" height="4.2"/>
	<rect x="100.9" y="59.9" class="st2" width="15" height="4.2"/>
	<path class="st1" d="M146.5,69.9H57.2v113.7h89.4v-32.3h-32.9v4.2h28.7v23.9h-81V74.1h80.9v5.7H86.1c-4.6,0-8.3,3.7-8.3,8.3v59.6
		c0,4.6,3.7,7.9,8.3,7.9H97v-4.2H86.1c-2.2,0-4.1-1.4-4.1-3.7V88.1c0-2.2,1.8-4.1,4.1-4.1h60.4L146.5,69.9L146.5,69.9z"/>
	<rect x="92.7" y="97.6" class="st3" width="18.7" height="4.2"/>
	<rect x="92.7" y="97.6" class="st4" width="18.7" height="4.2"/>
	<rect x="115.9" y="97.6" class="st3" width="51.1" height="4.2"/>
	<rect x="115.9" y="97.6" class="st4" width="23.6" height="4.2"/>
	<rect x="173.1" y="97.6" class="st3" width="12.7" height="4.2"/>
	<rect x="173.1" y="97.6" class="st4" width="12.7" height="4.2"/>
	<rect x="92.7" y="135.1" class="st3" width="18.7" height="4.2"/>
	<rect x="92.7" y="135.1" class="st4" width="18.7" height="4.2"/>
	<rect x="115.9" y="135.1" class="st3" width="51.1" height="4.2"/>
	<rect x="115.9" y="135.1" class="st4" width="23.6" height="4.2"/>
	<rect x="173.1" y="135.1" class="st3" width="12.7" height="4.2"/>
	<rect x="173.1" y="135.1" class="st4" width="12.7" height="4.2"/>
	<rect x="92.7" y="107.7" class="st3" width="93.1" height="4.2"/>
	<rect x="92.7" y="107.7" class="st4" width="93.2" height="4.2"/>
	<rect x="92.7" y="116.5" class="st3" width="18.7" height="4.2"/>
	<rect x="92.7" y="116.5" class="st4" width="18.7" height="4.2"/>
	<rect x="115.9" y="116.5" class="st3" width="51.1" height="4.2"/>
	<rect x="115.9" y="116.5" class="st4" width="23.6" height="4.2"/>
	<rect x="173.1" y="116.5" class="st3" width="12.7" height="4.2"/>
	<rect x="173.1" y="116.5" class="st4" width="12.7" height="4.2"/>
	<rect x="92.7" y="126.6" class="st3" width="93.1" height="4.2"/>
	<rect x="92.7" y="126.6" class="st4" width="93.2" height="4.2"/>
	<path class="st1" d="M190.6,79.7H86.1c-4.6,0-8.3,3.7-8.3,8.3v59.1c0,4.6,3.7,8.3,8.3,8.3h8.6l10.6,15.2l10.6-15.2h74.7
		c4.6,0,8.3-3.7,8.3-8.3V88C199,83.5,195.3,79.7,190.6,79.7z M194.8,147.1c0,2.2-1.8,4.1-4.1,4.1h-77l0,0l-8.3,11.9l-8.3-11.9H86.2
		c-2.2,0-4.1-1.8-4.1-4.1V88c0-2.2,1.8-4.1,4.1-4.1h104.6c2.2,0,4.1,1.9,4.1,4.1L194.8,147.1L194.8,147.1z"/>
</g>
</svg>
