<?xml version="1.0" encoding="utf-8"?>
<!-- Generator: Adobe Illustrator 22.1.0, SVG Export Plug-In . SVG Version: 6.00 Build 0)  -->
<svg version="1.1" id="Layer_1" xmlns="http://www.w3.org/2000/svg" xmlns:xlink="http://www.w3.org/1999/xlink" x="0px" y="0px"
	 viewBox="0 0 96 96" style="enable-background:new 0 0 96 96;" xml:space="preserve">
<style type="text/css">
	.st0{fill:#00827E;}
	.st1{fill:#727174;stroke:#373F40;stroke-width:2;stroke-miterlimit:10;}
	.st2{fill:#727174;}
</style>
<g>
	<g>
		<g>
			<g>
				<path class="st0" d="M69,50.5c-3.4,0-6-3.2-6-7.5c0-3,0.7-6.5,6-6.5c5.3,0,6,3.5,6,6.5C75,47.2,72.4,50.5,69,50.5z M69,38.5
					c-3,0-4,1.1-4,4.5c0,2.7,1.4,5.5,4,5.5c2.6,0,4-2.8,4-5.5C73,39.6,72,38.5,69,38.5z"/>
			</g>
			<g>
				<rect x="60.6" y="49" transform="matrix(0.8574 -0.5146 0.5146 0.8574 -16.6582 39.8016)" class="st0" width="5.8" height="2"/>
			</g>
			<g>
				<path class="st0" d="M77,58.5h-6v-2h6c0.3,0,1-0.8,1-2V53l-6.5-3.7l1-1.7l7.5,4.3v2.6C80,56.6,78.6,58.5,77,58.5z"/>
			</g>
		</g>
		<g>
			<g>
				<path class="st0" d="M27,50.5c-3.4,0-6-3.2-6-7.5c0-3,0.7-6.5,6-6.5c5.3,0,6,3.5,6,6.5C33,47.2,30.4,50.5,27,50.5z M27,38.5
					c-3,0-4,1.1-4,4.5c0,2.7,1.4,5.5,4,5.5c2.6,0,4-2.8,4-5.5C31,39.6,30,38.5,27,38.5z"/>
			</g>
			<g>
				<rect x="31.5" y="47" transform="matrix(0.5145 -0.8575 0.8575 0.5145 -27.0645 52.126)" class="st0" width="2" height="5.8"/>
			</g>
			<g>
				<path class="st0" d="M25,58.5h-6c-1.6,0-3-1.8-3-4v-2.6l7.5-4.3l1,1.7L18,53v1.4c0,1.2,0.7,2,1,2h6V58.5z"/>
			</g>
		</g>
		<g>
			<g>
				<g>
					<path class="st1" d="M55,53.5"/>
				</g>
				<g>
					<path class="st2" d="M27,75.5h-2v-9c0-8,4.4-9.7,9.2-11.5c1.7-0.7,3.5-1.3,5.4-2.4l1,1.7c-1.9,1.1-3.9,1.9-5.6,2.5
						c-4.7,1.8-7.9,3-7.9,9.6V75.5z"/>
				</g>
				<g>
					<path class="st2" d="M71,75.5h-2v-9c0-6.6-3.1-7.8-7.9-9.6c-1.7-0.7-3.7-1.4-5.6-2.5l1-1.7c1.8,1,3.6,1.7,5.4,2.4
						c4.7,1.8,9.2,3.5,9.2,11.5V75.5z"/>
				</g>
				<g>
					<path class="st2" d="M52.2,58.7L48,56.6l-4.2,2.1l-5.1-5.1l2.8-4.2l6.5,1.1l6.5-1.1l2.8,4.2L52.2,58.7z M48,54.3l3.8,1.9
						l2.9-2.9l-1.2-1.8L48,52.5l-5.5-0.9l-1.2,1.8l2.9,2.9L48,54.3z"/>
				</g>
				<g>
					<rect x="52" y="46.5" class="st2" width="2" height="4"/>
				</g>
				<g>
					<rect x="42" y="46.5" class="st2" width="2" height="4"/>
				</g>
				<g>
					<rect x="47" y="63.5" class="st2" width="2" height="2"/>
				</g>
				<g>
					<rect x="47" y="59.5" class="st2" width="2" height="2"/>
				</g>
				<g>
					<g>
						<path class="st2" d="M48,48.5c-0.1,0-3.3,0-5.4-1.1l-0.1-0.1c-0.1-0.1-3.4-2.3-4.4-9.7l0-0.1v-4h2v3.9c0.9,5.9,3.2,8,3.5,8.2
							c1.8,0.8,4.5,0.9,4.5,0.9c0,0,2.7,0,4.5-0.9c0.3-0.3,2.7-2.3,3.5-8.2v-3.9h2l0,4.1c-1.1,7.4-4.3,9.6-4.4,9.7l-0.1,0.1
							C51.3,48.5,48.1,48.5,48,48.5z"/>
					</g>
					<g>
						<path class="st2" d="M58,33.5h-2c0-5.5-2.5-8-8-8c-5.5,0-8,2.5-8,8h-2c0-6.6,3.4-10,10-10C54.6,23.5,58,26.8,58,33.5z"/>
					</g>
					<g>
						<polygon class="st2" points="53,36.6 43,32.6 39.4,34.4 38.6,32.6 43,30.4 53,34.4 56.6,32.6 57.4,34.4 						"/>
					</g>
				</g>
			</g>
			<g>
				<rect x="33" y="67.5" class="st2" width="2" height="8"/>
			</g>
			<g>
				<rect x="61" y="67.5" class="st2" width="2" height="8"/>
			</g>
		</g>
		<path class="st0" d="M48.9,44.2c-0.3,0-0.6,0-0.9,0l0-1.5c9.6,0.2,10.7-3.4,10.7-3.4c0-0.1,1.6-7.4-1.4-12.7
			c-2.8-4.9-8.2-4.6-10.8-4.5l-0.4,0c-2.9,0.1-5.2,1.1-6.7,3c-3.3,4-2.3,10.8-2.3,10.8l-1.5,0.2c0-0.3-1.1-7.5,2.6-12
			c1.8-2.2,4.5-3.4,7.8-3.6l0.4,0c2.7-0.1,8.9-0.5,12.2,5.3c3.3,5.8,1.6,13.5,1.5,13.8C60.1,39.8,59,44.2,48.9,44.2z"/>
		<circle class="st0" cx="48.1" cy="43.3" r="1.6"/>
	</g>
</g>
</svg>
