<?xml version="1.0" encoding="utf-8"?>
<!-- Generator: Adobe Illustrator 25.3.0, SVG Export Plug-In . SVG Version: 6.00 Build 0)  -->
<svg version="1.1" id="Layer_1" xmlns="http://www.w3.org/2000/svg" xmlns:xlink="http://www.w3.org/1999/xlink" x="0px" y="0px"
	 viewBox="0 0 96 96" style="enable-background:new 0 0 96 96;" xml:space="preserve">
<style type="text/css">
	.st0{fill:#FFFFFF;stroke:#FFFFFF;stroke-miterlimit:10;}
	.st1{fill:#FFFFFF;stroke:#FFFFFF;stroke-width:0.401;stroke-miterlimit:10;}
</style>
<g>
	<path class="st0" d="M26.08,53.25c-0.2,0-0.4-0.07-0.57-0.2l-8.06-6.54c-0.25-0.2-0.37-0.52-0.32-0.83
		c0.05-0.31,0.26-0.58,0.55-0.7l18.65-7.45L37,39.19l-17.23,6.89l6.47,5.25l15.52-5.92l0.64,1.67l-16,6.1
		C26.3,53.23,26.19,53.25,26.08,53.25"/>
	<path class="st1" d="M26.08,53.25c-0.2,0-0.4-0.07-0.57-0.2l-8.06-6.54c-0.25-0.2-0.37-0.52-0.32-0.83
		c0.05-0.31,0.26-0.58,0.55-0.7l18.65-7.45L37,39.19l-17.23,6.89l6.47,5.25l15.52-5.92l0.64,1.67l-16,6.1
		C26.3,53.23,26.19,53.25,26.08,53.25z"/>
	<path class="st0" d="M70.34,53.25c-0.11,0-0.21-0.02-0.32-0.06l-15.91-5.97l0.63-1.68l15.43,5.79l6.48-5.26l-17.23-6.89l0.66-1.66
		l18.65,7.45c0.29,0.12,0.5,0.38,0.55,0.7c0.05,0.31-0.07,0.63-0.32,0.83l-8.06,6.54C70.74,53.18,70.54,53.25,70.34,53.25"/>
	<path class="st1" d="M70.34,53.25c-0.11,0-0.21-0.02-0.32-0.06l-15.91-5.97l0.63-1.68l15.43,5.79l6.48-5.26l-17.23-6.89l0.66-1.66
		l18.65,7.45c0.29,0.12,0.5,0.38,0.55,0.7c0.05,0.31-0.07,0.63-0.32,0.83l-8.06,6.54C70.74,53.18,70.54,53.25,70.34,53.25z"/>
	<path class="st0" d="M26.98,76.4l20.34,7.56V62.44l-7.2,5.76c-0.25,0.2-0.58,0.25-0.87,0.14l-12.26-4.62V76.4z M48.21,86.14
		c-0.11,0-0.21-0.02-0.31-0.06l-22.13-8.22c-0.35-0.13-0.58-0.47-0.58-0.84V62.43c0-0.29,0.14-0.57,0.39-0.73
		c0.24-0.17,0.55-0.21,0.82-0.1l13,4.89l8.26-6.61c0.27-0.22,0.64-0.26,0.95-0.11c0.31,0.15,0.51,0.46,0.51,0.81v24.67
		c0,0.29-0.14,0.57-0.38,0.73C48.57,86.09,48.39,86.14,48.21,86.14"/>
	<path class="st1" d="M26.98,76.4l20.34,7.56V62.44l-7.2,5.76c-0.25,0.2-0.58,0.25-0.87,0.14l-12.26-4.62V76.4z M48.21,86.14
		c-0.11,0-0.21-0.02-0.31-0.06l-22.13-8.22c-0.35-0.13-0.58-0.47-0.58-0.84V62.43c0-0.29,0.14-0.57,0.39-0.73
		c0.24-0.17,0.55-0.21,0.82-0.1l13,4.89l8.26-6.61c0.27-0.22,0.64-0.26,0.95-0.11c0.31,0.15,0.51,0.46,0.51,0.81v24.67
		c0,0.29-0.14,0.57-0.38,0.73C48.57,86.09,48.39,86.14,48.21,86.14z"/>
	<path class="st0" d="M19.77,58.63l19.63,7.85l7.01-5.61l-20.17-7.49L19.77,58.63z M39.56,68.4c-0.11,0-0.23-0.02-0.33-0.06
		l-21.53-8.61c-0.3-0.12-0.51-0.38-0.56-0.7c-0.05-0.31,0.07-0.63,0.32-0.83l8.06-6.54c0.24-0.2,0.58-0.25,0.88-0.14l22.13,8.22
		c0.3,0.11,0.52,0.38,0.57,0.7c0.05,0.32-0.07,0.64-0.32,0.84l-8.65,6.93C39.95,68.33,39.76,68.4,39.56,68.4"/>
	<path class="st1" d="M19.77,58.63l19.63,7.85l7.01-5.61l-20.17-7.49L19.77,58.63z M39.56,68.4c-0.11,0-0.23-0.02-0.33-0.06
		l-21.53-8.61c-0.3-0.12-0.51-0.38-0.56-0.7c-0.05-0.31,0.07-0.63,0.32-0.83l8.06-6.54c0.24-0.2,0.58-0.25,0.88-0.14l22.13,8.22
		c0.3,0.11,0.52,0.38,0.57,0.7c0.05,0.32-0.07,0.64-0.32,0.84l-8.65,6.93C39.95,68.33,39.76,68.4,39.56,68.4z"/>
	<path class="st0" d="M48.21,86.14c-0.18,0-0.36-0.05-0.51-0.16c-0.24-0.17-0.38-0.44-0.38-0.73V60.58h1.79v23.38l20.34-7.56V62.43
		h1.79v14.59c0,0.38-0.23,0.71-0.58,0.84l-22.13,8.22C48.42,86.13,48.32,86.14,48.21,86.14"/>
	<path class="st1" d="M48.21,86.14c-0.18,0-0.36-0.05-0.51-0.16c-0.24-0.17-0.38-0.44-0.38-0.73V60.58h1.79v23.38l20.34-7.56V62.43
		h1.79v14.59c0,0.38-0.23,0.71-0.58,0.84l-22.13,8.22C48.42,86.13,48.32,86.14,48.21,86.14z"/>
	<path class="st0" d="M50,60.87l7.01,5.61l19.63-7.85l-6.48-5.26L50,60.87z M56.87,68.4c-0.2,0-0.4-0.07-0.56-0.2l-8.66-6.93
		c-0.25-0.2-0.38-0.52-0.32-0.84c0.05-0.32,0.27-0.59,0.57-0.7l22.13-8.22c0.3-0.11,0.63-0.06,0.88,0.14l8.06,6.54
		c0.25,0.2,0.37,0.52,0.32,0.83c-0.05,0.31-0.26,0.58-0.55,0.7L57.2,68.34C57.09,68.38,56.98,68.4,56.87,68.4"/>
	<path class="st1" d="M50,60.87l7.01,5.61l19.63-7.85l-6.48-5.26L50,60.87z M56.87,68.4c-0.2,0-0.4-0.07-0.56-0.2l-8.66-6.93
		c-0.25-0.2-0.38-0.52-0.32-0.84c0.05-0.32,0.27-0.59,0.57-0.7l22.13-8.22c0.3-0.11,0.63-0.06,0.88,0.14l8.06,6.54
		c0.25,0.2,0.37,0.52,0.32,0.83c-0.05,0.31-0.26,0.58-0.55,0.7L57.2,68.34C57.09,68.38,56.98,68.4,56.87,68.4z"/>
	
		<rect x="25.52" y="48.41" transform="matrix(0.934 -0.3573 0.3573 0.934 -15.3661 15.4308)" class="st0" width="17.12" height="1.79"/>
	
		<rect x="25.52" y="48.41" transform="matrix(0.934 -0.3573 0.3573 0.934 -15.3661 15.4308)" class="st1" width="17.12" height="1.79"/>
	<g>
		<path class="st0" d="M42.98,54.17H53.5v-5.9H42.98V54.17z M54.39,55.96H42.08c-0.49,0-0.89-0.4-0.89-0.89v-7.69
			c0-0.49,0.4-0.89,0.89-0.89h12.31c0.49,0,0.89,0.4,0.89,0.89v7.69C55.28,55.56,54.88,55.96,54.39,55.96"/>
		<path class="st1" d="M42.98,54.17H53.5v-5.9H42.98V54.17z M54.39,55.96H42.08c-0.49,0-0.89-0.4-0.89-0.89v-7.69
			c0-0.49,0.4-0.89,0.89-0.89h12.31c0.49,0,0.89,0.4,0.89,0.89v7.69C55.28,55.56,54.88,55.96,54.39,55.96z"/>
		<path class="st0" d="M42.91,46.48h10.6c0.25-3.39,2.2-5.31,3.94-7.01c0.73-0.71,1.41-1.38,1.98-2.14
			c0.02-0.03,0.04-0.05,0.06-0.07c0.52-0.57,1-1.17,1.42-1.79c1.73-2.55,2.64-5.53,2.64-8.61c0-8.45-6.87-15.33-15.32-15.34
			c-0.03,0-0.05,0-0.08-0.01c-8.44,0.03-15.29,6.91-15.29,15.35c0,3.08,0.91,6.06,2.64,8.61c0.43,0.63,0.91,1.23,1.42,1.78
			c0.02,0.02,0.04,0.05,0.06,0.07c0.56,0.76,1.25,1.43,1.98,2.14C40.71,41.17,42.67,43.09,42.91,46.48 M54.39,48.27H42.04
			c-0.24,0-0.47-0.1-0.64-0.27c-0.17-0.17-0.26-0.4-0.26-0.64c0.05-3.2-1.64-4.86-3.43-6.61c-0.73-0.72-1.49-1.46-2.13-2.32
			c-0.56-0.61-1.08-1.27-1.55-1.96c-1.93-2.85-2.95-6.18-2.95-9.62c0-9.45,7.69-17.14,17.14-17.14c0.03,0,0.06,0,0.09,0.01
			c9.4,0.05,17.04,7.73,17.04,17.14c0,3.44-1.02,6.77-2.95,9.62c-0.47,0.68-0.99,1.34-1.56,1.96c-0.64,0.86-1.4,1.6-2.13,2.32
			c-1.79,1.75-3.48,3.41-3.43,6.61c0.01,0.24-0.09,0.47-0.26,0.64C54.86,48.18,54.63,48.27,54.39,48.27"/>
		<path class="st1" d="M42.91,46.48h10.6c0.25-3.39,2.2-5.31,3.94-7.01c0.73-0.71,1.41-1.38,1.98-2.14
			c0.02-0.03,0.04-0.05,0.06-0.07c0.52-0.57,1-1.17,1.42-1.79c1.73-2.55,2.64-5.53,2.64-8.61c0-8.45-6.87-15.33-15.32-15.34
			c-0.03,0-0.05,0-0.08-0.01c-8.44,0.03-15.29,6.91-15.29,15.35c0,3.08,0.91,6.06,2.64,8.61c0.43,0.63,0.91,1.23,1.42,1.78
			c0.02,0.02,0.04,0.05,0.06,0.07c0.56,0.76,1.25,1.43,1.98,2.14C40.71,41.17,42.67,43.09,42.91,46.48z M54.39,48.27H42.04
			c-0.24,0-0.47-0.1-0.64-0.27c-0.17-0.17-0.26-0.4-0.26-0.64c0.05-3.2-1.64-4.86-3.43-6.61c-0.73-0.72-1.49-1.46-2.13-2.32
			c-0.56-0.61-1.08-1.27-1.55-1.96c-1.93-2.85-2.95-6.18-2.95-9.62c0-9.45,7.69-17.14,17.14-17.14c0.03,0,0.06,0,0.09,0.01
			c9.4,0.05,17.04,7.73,17.04,17.14c0,3.44-1.02,6.77-2.95,9.62c-0.47,0.68-0.99,1.34-1.56,1.96c-0.64,0.86-1.4,1.6-2.13,2.32
			c-1.79,1.75-3.48,3.41-3.43,6.61c0.01,0.24-0.09,0.47-0.26,0.64C54.86,48.18,54.63,48.27,54.39,48.27z"/>
	</g>
	<rect x="40.8" y="50.33" class="st0" width="14.87" height="1.79"/>
	<rect x="40.8" y="50.33" class="st1" width="14.87" height="1.79"/>
	<path class="st0" d="M43.33,28.21c-0.54,0-0.98,0.44-0.98,0.97c0,0.54,0.44,0.98,0.98,0.98h0.98v-0.98
		C44.31,28.64,43.87,28.21,43.33,28.21 M52.12,30.16h0.97c0.54,0,0.98-0.44,0.98-0.98c0-0.54-0.44-0.97-0.98-0.97
		c-0.54,0-0.97,0.44-0.97,0.97V30.16z M52.12,47.38h-1.79V31.95H46.1v15.43h-1.79V31.95h-0.98c-1.52,0-2.76-1.24-2.76-2.77
		c0-1.52,1.24-2.76,2.76-2.76c1.53,0,2.77,1.24,2.77,2.76v0.98h4.23v-0.98c0-1.52,1.24-2.76,2.76-2.76c1.53,0,2.77,1.24,2.77,2.76
		c0,1.53-1.24,2.77-2.77,2.77h-0.97V47.38z"/>
	<path class="st1" d="M43.33,28.21c-0.54,0-0.98,0.44-0.98,0.97c0,0.54,0.44,0.98,0.98,0.98h0.98v-0.98
		C44.31,28.64,43.87,28.21,43.33,28.21z M52.12,30.16h0.97c0.54,0,0.98-0.44,0.98-0.98c0-0.54-0.44-0.97-0.98-0.97
		c-0.54,0-0.97,0.44-0.97,0.97V30.16z M52.12,47.38h-1.79V31.95H46.1v15.43h-1.79V31.95h-0.98c-1.52,0-2.76-1.24-2.76-2.77
		c0-1.52,1.24-2.76,2.76-2.76c1.53,0,2.77,1.24,2.77,2.76v0.98h4.23v-0.98c0-1.52,1.24-2.76,2.76-2.76c1.53,0,2.77,1.24,2.77,2.76
		c0,1.53-1.24,2.77-2.77,2.77h-0.97V47.38z"/>
</g>
</svg>
