<svg xmlns="http://www.w3.org/2000/svg" width="24" height="21" fill="none" viewBox="0 0 24 21">
    <path fill="#fff" d="M23.208 10.523c-1.144 2.466-5.303 7.255-11.208 7.255S1.936 12.99.792 10.523C1.936 8.056 6.095 3.268 12 3.268s10.06 4.788 11.208 7.255z"/>
    <path fill="#717791" d="M12 18.16c-5.894 0-10.218-4.586-11.56-7.477a.378.378 0 0 1 0-.317C1.783 7.472 6.107 2.886 12 2.886s10.218 4.586 11.56 7.477c.046.099.046.217 0 .317-1.342 2.894-5.666 7.48-11.56 7.48zM1.221 10.522C2.392 12.87 6.392 17.396 12 17.396s9.608-4.525 10.779-6.873C21.608 8.175 17.608 3.65 12 3.65S2.392 8.175 1.221 10.523z"/>
    <path fill="#B8D4FF" d="M12 15.479c2.775 0 5.024-2.222 5.024-4.964 0-2.741-2.25-4.963-5.024-4.963-2.775 0-5.024 2.222-5.024 4.963 0 2.742 2.25 4.964 5.024 4.964z"/>
    <path fill="#717791" d="M12 15.86c-2.984 0-5.41-2.397-5.41-5.345C6.59 7.568 9.015 5.17 12 5.17s5.41 2.398 5.41 5.345c0 2.948-2.426 5.346-5.41 5.346zm0-9.927c-2.558 0-4.638 2.055-4.638 4.582 0 2.528 2.08 4.582 4.638 4.582s4.638-2.054 4.638-4.582c0-2.527-2.08-4.582-4.638-4.582z"/>
    <path fill="#fff" d="M12 13.188c1.494 0 2.705-1.197 2.705-2.673S13.495 7.843 12 7.843c-1.494 0-2.705 1.196-2.705 2.672 0 1.476 1.21 2.673 2.705 2.673z"/>
    <path fill="#717791" d="M12 13.57c-1.704 0-3.092-1.37-3.092-3.055 0-1.684 1.388-3.054 3.092-3.054.444 0 .877.095 1.283.278a.381.381 0 0 1 .19.508.39.39 0 0 1-.515.187 2.335 2.335 0 0 0-.962-.21c-1.28 0-2.319 1.027-2.319 2.291s1.04 2.291 2.32 2.291c1.278 0 2.318-1.027 2.318-2.29 0-.337-.077-.665-.224-.978a.378.378 0 0 1 .185-.508.386.386 0 0 1 .514.183 3 3 0 0 1 .298 1.302c.004 1.688-1.384 3.055-3.088 3.055z"/>
</svg>
