<svg xmlns="http://www.w3.org/2000/svg" width="32" height="32" fill="none" viewBox="0 0 32 32">
    <path fill="#fff" d="M16 32c8.837 0 16-7.163 16-16S24.837 0 16 0 0 7.163 0 16s7.163 16 16 16z"/>
    <path fill="#C00" d="M23.09 17.018c.129-.094.104-.186-.055-.203 0 0-1.01-.107-1.161-.344-.15-.237.817-1.833.817-1.833.083-.136.026-.211-.128-.166 0 0-1.797.53-1.944.415-.147-.116-.09-1.106-.09-1.106.01-.159-.08-.2-.198-.093l-2.105 1.925c-.118.107-.193.067-.167-.09l.685-4.178c.026-.157-.066-.22-.203-.14 0 0-.896.52-1.214.459-.318-.062-1.213-2.169-1.213-2.169-.063-.146-.165-.146-.227 0 0 0-.895 2.108-1.213 2.169-.318.061-1.214-.46-1.214-.46-.139-.08-.23-.016-.205.141l.686 4.177c.026.157-.05.198-.167.09l-2.105-1.924c-.117-.107-.207-.066-.197.094 0 0 .056.989-.09 1.104-.147.117-1.945-.413-1.945-.413-.153-.046-.21.029-.128.165 0 0 .968 1.595.818 1.833-.152.238-1.162.345-1.162.345-.159.017-.184.109-.055.203l3.485 2.57c.128.094.179.29.113.436l-.158.342c-.066.144.01.253.168.24l2.939-.243a.264.264 0 0 1 .289.267v3.028c0 .16.057.162.127.162h.254c.07 0 .127-.002.127-.162v-3.028c0-.16.13-.28.289-.266l2.938.242c.159.013.235-.095.168-.24l-.156-.342a.373.373 0 0 1 .111-.435l3.486-2.572zM0 16c0 5.332 2.61 10.052 6.62 12.96V3.04C2.61 5.949 0 10.669 0 16zM32 16c0-5.332-2.61-10.052-6.62-12.96v25.92C29.39 26.051 32 21.331 32 16z"/>
</svg>
