<?xml version="1.0" encoding="utf-8"?>
<!-- Generator: Adobe Illustrator 24.1.1, SVG Export Plug-In . SVG Version: 6.00 Build 0)  -->
<svg version="1.1" id="Layer_1" xmlns="http://www.w3.org/2000/svg" xmlns:xlink="http://www.w3.org/1999/xlink" x="0px" y="0px"
	 viewBox="0 0 128 128" style="enable-background:new 0 0 128 128;" xml:space="preserve">
<style type="text/css">
	.st0{fill:#727174;}
	.st1{fill:#00827E;}
</style>
<g>
	<path class="st0" d="M64.3,120.8C64.2,120.8,64.2,120.8,64.3,120.8c-0.1,0-0.2,0-0.2,0l0,0c-1.6-0.1-8-1.5-10.3-2.9H14.9V47.2H19
		v-3.5l0.8-0.2c4.7-1,9.5-1.5,14.7-1.8l1,0l0,1c0.1,1.9,0.4,3.9,0.8,5.8l0.3,1.2l-1.2,0.1c-4.1,0.2-7.8,0.6-11.2,1.4v3.1h-3.7v57
		c5.7-0.5,31.3-2.5,44.9,1.5c13.4-2.8,26.1-3.3,43.3-1.5v-57h-4.4v-3.1c-2.9-0.6-6-1-9.4-1.3l-1.2-0.1l0.3-1.2
		c0.5-1.9,0.8-3.9,0.9-5.8l0-1l1,0.1c4.9,0.3,9.4,0.8,13.9,1.7l0.8,0.2v3.5h4.1v70.7H75.7C73.1,119.6,65.9,120.7,64.3,120.8
		L64.3,120.8C64.3,120.8,64.3,120.8,64.3,120.8z M64.2,118.8L64.2,118.8c1.2-0.1,8.7-1.2,10.6-2.7l0.3-0.2h37.5V49.2h-4.1v-3.9
		c-3.8-0.7-7.6-1.2-11.8-1.5c-0.1,1.4-0.3,2.7-0.6,4c3.4,0.3,6.4,0.7,9.3,1.4l0.8,0.2v2.7h4.4v61.2l-1.1-0.1
		c-17.6-1.9-30.4-1.5-44,1.4l-0.3,0.1l-0.2-0.1c-14.6-4.4-45.1-1.4-45.4-1.4l-1.1,0.1V52.2h3.7v-2.7l0.8-0.2
		c3.4-0.8,7.1-1.3,11.2-1.5c-0.3-1.3-0.5-2.6-0.6-4C29.2,44,25,44.5,21,45.3v3.9h-4.1v66.7h37.5l0.3,0.2
		C56.3,117.3,63,118.7,64.2,118.8L64.2,118.8z"/>
	<path class="st0" d="M22.2,109.4V56.2h2V107c10-1.8,21.5-1.8,36.8,0V72.7c-11.1-1.5-20.7-8.7-25-19.2l1.8-0.8
		c4.2,10,13.5,16.9,24.3,18.1l0.9,0.1v38.3l-1.1-0.1c-16.3-2-28.1-2-38.5,0.1L22.2,109.4z"/>
	<path class="st0" d="M93.4,53.2"/>
	<path class="st0" d="M106.2,109.2L105,109c-5-0.9-10.2-1.3-16.2-1.3c-6.2-0.1-13.1,0.4-21.2,1.3l-1.1,0.1V71l0.9-0.1
		c11.1-0.9,20.7-7.8,25.1-18.1l1.8,0.8c-4.5,10.7-14.3,18-25.8,19.3v34c7.7-0.9,14.4-1.3,20.3-1.2c5.6,0,10.6,0.4,15.3,1.2V56.2h2
		V109.2z"/>
	<path class="st1" d="M71.9,80.6l-0.2-2c0.4,0,10-1,15-1c5,0,14.5,1,14.9,1l-0.2,2c-0.1,0-9.8-1-14.7-1C81.9,79.6,72,80.6,71.9,80.6
		z"/>
	<path class="st1" d="M71.9,87.6l-0.2-2c0.4,0,10-1,15-1c5,0,14.5,1,14.9,1l-0.2,2c-0.1,0-9.8-1-14.7-1C81.9,86.6,72,87.6,71.9,87.6
		z"/>
	<path class="st1" d="M71.9,95.6l-0.2-2c0.4,0,10-1,15-1c5,0,14.5,1,14.9,1l-0.2,2c-0.1,0-9.8-1-14.7-1C81.9,94.6,72,95.6,71.9,95.6
		z"/>
	<path class="st1" d="M71.9,102.6l-0.2-2c0.4,0,10-1,15-1c5,0,14.5,1,14.9,1l-0.2,2c-0.1,0-9.8-1-14.7-1
		C81.9,101.6,72,102.6,71.9,102.6z"/>
	<path class="st1" d="M27.8,80.6l-0.2-2c0.4,0,10-1,15-1c5,0,14.5,1,14.9,1l-0.2,2c-0.1,0-9.8-1-14.7-1
		C37.8,79.6,27.9,80.6,27.8,80.6z"/>
	<path class="st1" d="M27.8,87.6l-0.2-2c0.4,0,10-1,15-1c5,0,14.5,1,14.9,1l-0.2,2c-0.1,0-9.8-1-14.7-1
		C37.8,86.6,27.9,87.6,27.8,87.6z"/>
	<path class="st1" d="M27.8,95.6l-0.2-2c0.4,0,10-1,15-1c5,0,14.5,1,14.9,1l-0.2,2c-0.1,0-9.8-1-14.7-1
		C37.8,94.6,27.9,95.6,27.8,95.6z"/>
	<path class="st1" d="M27.8,102.6l-0.2-2c0.4,0,10-1,15-1c5,0,14.5,1,14.9,1l-0.2,2c-0.1,0-9.8-1-14.7-1
		C37.8,101.6,27.9,102.6,27.8,102.6z"/>
</g>
<g>
	<path class="st0" d="M72.8,55.7l-0.7-1.5l0.3,0.7l-0.8,0c-0.1-1.3-0.1-4.6,1.4-6.7c5.7-7.3,5.9-14.1,5.9-14.2
		c0-7.8-6.4-14.2-14.2-14.2c-7.8,0-14.2,6.4-14.2,14.2c0,0.1,0.2,6.9,5.8,14.2c1.5,2,1.6,4.9,1.6,6.5l-0.8,0.1l-0.5,0.7
		c-0.4-0.3-0.4-0.7-0.4-0.8c0-1.1,0-3.9-1.2-5.5c-6-7.7-6.2-15.1-6.2-15.2c0-8.7,7.1-15.8,15.8-15.8c8.7,0,15.8,7.1,15.8,15.8
		c0,0.1-0.2,7.5-6.2,15.2c-1.3,1.7-1.2,4.6-1.1,5.5l0,0.6L72.8,55.7z"/>
	<g>
		<rect x="58.5" y="37.8" transform="matrix(0.9871 -0.16 0.16 0.9871 -6.6972 10.1307)" class="st1" width="2.2" height="17.6"/>
		
			<rect x="61.1" y="45.6" transform="matrix(0.1597 -0.9872 0.9872 0.1597 12.7196 108.2364)" class="st1" width="17.6" height="2.2"/>
	</g>
	<rect x="58.3" y="38.2" class="st1" width="3.8" height="2.2"/>
	<rect x="68.1" y="38.2" class="st1" width="2.8" height="2.2"/>
	<g>
		<rect x="63.3" y="9" class="st1" width="2.2" height="5.1"/>
		
			<rect x="52.3" y="12.2" transform="matrix(0.8661 -0.4999 0.4999 0.8661 -0.1858 28.6723)" class="st0" width="2.2" height="5.1"/>
		<rect x="44.4" y="20.3" transform="matrix(0.4999 -0.8661 0.8661 0.4999 2.9561 50.8564)" class="st1" width="2.2" height="5.1"/>
		<rect x="40.2" y="32.8" class="st0" width="5.1" height="2.2"/>
		<rect x="84.2" y="32.1" class="st0" width="5.1" height="2.2"/>
		<rect x="81.1" y="21.1" transform="matrix(0.866 -0.5 0.5 0.866 9.086486e-02 44.7778)" class="st1" width="5.1" height="2.2"/>
		<rect x="72.9" y="13.2" transform="matrix(0.5 -0.866 0.866 0.5 25.3132 72.4615)" class="st0" width="5.1" height="2.2"/>
		<rect x="82.7" y="41.9" transform="matrix(0.4999 -0.8661 0.8661 0.4999 3.3936 94.794)" class="st1" width="2.2" height="5.1"/>
		<rect x="43.2" y="44" transform="matrix(0.8662 -0.4997 0.4997 0.8662 -16.4263 28.8745)" class="st1" width="5.1" height="2.2"/>
	</g>
	<rect x="56.8" y="57.2" class="st0" width="12.6" height="1.6"/>
	<rect x="56.8" y="59.7" class="st0" width="12.6" height="1.6"/>
	<g>
		<rect x="63.6" y="33" class="st1" width="2.2" height="22.2"/>
	</g>
	<path class="st0" d="M70.5,65.3H59c-1.3,0-2.4-0.9-2.7-2c-0.8-0.4-1.3-1.2-1.3-2.1c0-0.4,0.1-0.9,0.3-1.2c-0.2-0.4-0.3-0.8-0.3-1.2
		c0-0.4,0.1-0.9,0.3-1.2c-0.2-0.4-0.3-0.8-0.3-1.2c0-1.3,1-2.3,2.3-2.4l14.9,0c1.3,0.1,2.3,1.1,2.3,2.4c0,0.4-0.1,0.9-0.3,1.2
		c0.2,0.4,0.3,0.8,0.3,1.2c0,0.4-0.1,0.9-0.3,1.2c0.2,0.4,0.3,0.8,0.3,1.2c0,0.9-0.5,1.7-1.3,2.1C72.8,64.4,71.7,65.3,70.5,65.3z
		 M57.3,56.1c-0.1,0-0.1,0.1-0.1,0.2c0,0.1,0.1,0.1,0.1,0.2v2.1c-0.1,0-0.1,0.1-0.1,0.2c0,0.1,0.1,0.1,0.1,0.2V61
		c-0.1,0-0.1,0.1-0.1,0.2c0,0.1,0.1,0.2,0.2,0.2l1.1,1.1v0.1c0,0.3,0.3,0.6,0.6,0.6h11.4c0.3,0,0.6-0.3,0.6-0.6v-0.1l1.1-1.1
		c0.1,0,0.2-0.1,0.2-0.2c0-0.1-0.1-0.1-0.1-0.2v-2.1c0.1,0,0.1-0.1,0.1-0.2c0-0.1-0.1-0.1-0.1-0.2v-2.1c0.1,0,0.1-0.1,0.1-0.2
		c0-0.1-0.1-0.2-0.2-0.2L57.3,56.1z"/>
</g>
</svg>
