<svg xmlns="http://www.w3.org/2000/svg" width="32" height="32" fill="none" viewBox="0 0 32 32">
    <path fill="#fff" d="M16 32c8.837 0 16-7.163 16-16S24.837 0 16 0 0 7.163 0 16s7.163 16 16 16z"/>
    <path fill="#1E3796" d="M30.785 22.12c.27-.651.499-1.325.682-2.018h-4l3.318 2.018zM31.466 11.898a15.93 15.93 0 0 0-.718-2.112l-3.367 2.112h4.085zM20.102 31.467a16.007 16.007 0 0 0 8.276-5.33l-8.276-5.034v10.364zM11.898.533a16.005 16.005 0 0 0-8.209 5.248l8.209 4.93V.534zM3.687 26.215a16.005 16.005 0 0 0 8.21 5.252V21.084l-8.21 5.13zM28.32 5.793a16.005 16.005 0 0 0-8.218-5.26v10.415l8.218-5.155zM1.252 9.786a15.908 15.908 0 0 0-.719 2.112h4.234L1.252 9.786zM.533 20.102c.193.729.433 1.437.722 2.12l3.393-2.12H.533z"/>
    <path fill="#C00" d="M9.547 11.898L2.385 7.596c-.287.464-.553.944-.792 1.438l4.767 2.864h3.187zM20.133 11.898h3.088l6.521-4.092a15.956 15.956 0 0 0-.911-1.365l-8.698 5.457zM22.732 20.102l6.936 4.22c.284-.467.545-.95.781-1.446l-4.559-2.774h-3.158zM11.898 20.102H8.822l-6.56 4.1c.281.47.585.927.912 1.365l8.724-5.45v-.015z"/>
    <path fill="#C00" d="M18.462 18.462h13.35a16.144 16.144 0 0 0 0-4.923h-13.35V.189a16.138 16.138 0 0 0-4.923 0v13.35H.189a16.14 16.14 0 0 0 0 4.923h13.35v13.35a16.147 16.147 0 0 0 4.923 0v-13.35z"/>
</svg>
