<?xml version="1.0" encoding="utf-8"?>
<!-- Generator: Adobe Illustrator 24.1.1, SVG Export Plug-In . SVG Version: 6.00 Build 0)  -->
<svg version="1.1" id="Layer_1" xmlns="http://www.w3.org/2000/svg" xmlns:xlink="http://www.w3.org/1999/xlink" x="0px" y="0px"
	 viewBox="0 0 128 128" style="enable-background:new 0 0 128 128;" xml:space="preserve">
<style type="text/css">
	.st0{fill:#7D7D80;}
	.st1{fill:none;stroke:#7D7D80;stroke-width:0.278;stroke-miterlimit:10;}
	.st2{fill:#00827E;}
</style>
<g>
	<path class="st0" d="M11.5,95.4h105c0.6-0.9,1.3-1.9,1.4-2.3c0.1-0.4,0.1-1.7,0-2.9H72.5v1.1c0,0.7-0.6,1.3-1.3,1.3H56.8
		c-0.7,0-1.2-0.6-1.2-1.3v-1.1H10.1c-0.1,1.3-0.1,2.5,0,2.9C10.2,93.5,10.9,94.5,11.5,95.4 M117.1,97.9H10.9c-0.4,0-0.8-0.2-1-0.5
		c-0.4-0.6-1.8-2.6-2.1-3.6c-0.3-1.2-0.1-4.1,0-5c0.1-0.6,0.6-1.1,1.2-1.1h47.8c0.7,0,1.3,0.6,1.3,1.3v1.1h12V89
		c0-0.7,0.6-1.3,1.3-1.3h47.8c0.6,0,1.2,0.5,1.2,1.1c0.1,0.9,0.3,3.8,0,5c-0.3,1-1.7,3-2.1,3.6C117.9,97.8,117.5,97.9,117.1,97.9"/>
	<path class="st1" d="M11.5,95.4h105c0.6-0.9,1.3-1.9,1.4-2.3c0.1-0.4,0.1-1.7,0-2.9H72.5v1.1c0,0.7-0.6,1.3-1.3,1.3H56.8
		c-0.7,0-1.2-0.6-1.2-1.3v-1.1H10.1c-0.1,1.3-0.1,2.5,0,2.9C10.2,93.5,10.9,94.5,11.5,95.4z M117.1,97.9H10.9c-0.4,0-0.8-0.2-1-0.5
		c-0.4-0.6-1.8-2.6-2.1-3.6c-0.3-1.2-0.1-4.1,0-5c0.1-0.6,0.6-1.1,1.2-1.1h47.8c0.7,0,1.3,0.6,1.3,1.3v1.1h12V89
		c0-0.7,0.6-1.3,1.3-1.3h47.8c0.6,0,1.2,0.5,1.2,1.1c0.1,0.9,0.3,3.8,0,5c-0.3,1-1.7,3-2.1,3.6C117.9,97.8,117.5,97.9,117.1,97.9z"
		/>
	<path class="st0" d="M102.2,87.7h4.3V38.2c0-1.4-1.2-2.6-2.6-2.6H24.2c-1.4,0-2.6,1.2-2.6,2.6v49.5h4.3V41.1c0-0.7,0.6-1.3,1.3-1.3
		h73.8c0.7,0,1.3,0.6,1.3,1.3V87.7z M107.7,90.2h-6.8c-0.7,0-1.3-0.6-1.3-1.3V42.4H28.3V89c0,0.7-0.6,1.3-1.3,1.3h-6.8
		c-0.7,0-1.3-0.6-1.3-1.3V38.2c0-2.8,2.3-5.1,5.1-5.1h79.6c2.8,0,5.1,2.3,5.1,5.1V89C108.9,89.7,108.4,90.2,107.7,90.2"/>
	<path class="st1" d="M102.2,87.7h4.3V38.2c0-1.4-1.2-2.6-2.6-2.6H24.2c-1.4,0-2.6,1.2-2.6,2.6v49.5h4.3V41.1c0-0.7,0.6-1.3,1.3-1.3
		h73.8c0.7,0,1.3,0.6,1.3,1.3V87.7z M107.7,90.2h-6.8c-0.7,0-1.3-0.6-1.3-1.3V42.4H28.3V89c0,0.7-0.6,1.3-1.3,1.3h-6.8
		c-0.7,0-1.3-0.6-1.3-1.3V38.2c0-2.8,2.3-5.1,5.1-5.1h79.6c2.8,0,5.1,2.3,5.1,5.1V89C108.9,89.7,108.4,90.2,107.7,90.2z"/>
</g>
<g>
	<path class="st2" d="M60.8,85.3H32.2l0-2.9c0-7,1.3-10.8,4-11.8c1-0.4,2-0.8,3-1.3c1-0.5,2.1-0.9,3.1-1.4c0,0,0,0,0,0
		c-0.3-0.5-0.6-1.1-0.8-1.6L41.1,66l-0.2-0.7c-0.6-1.6-0.8-3.1-0.7-4.7l0-0.9l0.2-0.2c0-1.2,0.1-2.8,0.7-3.9
		c1.1-2.1,3.9-3.7,6.5-3.7h0.7c2.6,0,5.3,1.6,6.5,3.7c0.6,1.1,0.7,2.7,0.7,3.9l0.2,0.2l0,0.9c0.1,1.5-0.2,3.1-0.7,4.7L54.8,66
		l-0.3,0.2c-0.2,0.5-0.4,1-0.7,1.5c0.6,0.1,1.6,0,2.2,0l0.4,0c2.3-0.2,2.9-1,4.3-3L68,54.1c0.5-0.9,1.2-1.5,2-1.9l1.1-1.8
		c0.7-1.2,2.2-1.5,3.4-0.8c1.2,0.7,1.5,2.2,0.8,3.4l-0.2,0.3c1,1.1,1.4,2.6,1,4l-0.1,0.2L63.4,77.3c-0.9,1.4-1.5,2.7-2,3.9
		c-0.4,1.2-0.6,1.8-0.6,2.6L60.8,85.3z M35,82.4h23c0.1-0.7,0.4-1.4,0.6-2.2c0.5-1.4,1.2-2.8,2.3-4.4l12.4-19.4
		c0.1-0.7-0.4-1.2-0.8-1.4l-0.7-0.4l0,0l-0.5,0.2c-0.4,0.1-0.7,0.4-0.9,0.8l-0.1,0.1L63,66.2c-1.5,2.2-2.7,3.9-6.4,4.3l-0.4,0
		c-1.2,0.1-2.9,0.2-4.1-0.4c-0.4-0.2-1-0.5-1.4-1l-0.7-0.9l0.7-0.9c0.5-0.7,1-1.6,1.3-2.5l0.2-0.5l0.4-0.2c0.3-1,0.5-1.9,0.5-2.9
		l-0.3-0.2l0-0.7c0.1-1.4-0.1-2.6-0.4-3.2c-0.7-1.2-2.5-2.2-4-2.2h-0.6c-1.5,0-3.3,1-4,2.2c-0.3,0.5-0.4,1.8-0.4,3.2l0,0.7L43,61.2
		c0,0.9,0.2,1.9,0.5,2.9l0.4,0.2l0.2,0.5c0.2,0.8,0.7,1.7,1.4,2.4l0.8,0.9l-0.8,0.9c-0.5,0.5-1.1,1-2,1.4c-1,0.4-2.1,0.9-3.1,1.3
		c-1,0.4-2,0.9-3.1,1.3c-1,0.4-2.2,3-2.2,9.2L35,82.4z"/>
	<polygon class="st2" points="95.6,80.7 92.7,80.7 92.7,48.4 56.1,48.4 56.1,45.6 95.6,45.6 	"/>
	<rect x="78.7" y="51.1" class="st2" width="10.2" height="2.8"/>
	<rect x="78.2" y="56.9" class="st2" width="10.7" height="2.8"/>
	<rect x="75.8" y="62.3" class="st2" width="13.1" height="2.8"/>
	<rect x="73.6" y="67.7" class="st2" width="15.2" height="2.8"/>
</g>
</svg>
